<svg width="27" height="24" viewBox="0 0 27 24" fill="none" xmlns="http://www.w3.org/2000/svg">
<path d="M21.9391 13.9716C20.845 12.8808 20.845 11.1177 21.9391 10.0277C21.9464 10.0205 21.9537 10.0132 21.9616 10.0052C24.7069 7.25954 26.4472 3.77464 26.9954 0H20.5415C19.4568 4.66856 15.5165 8.25367 10.6693 8.80774V15.1923C15.5165 15.7463 19.4568 19.3314 20.5415 24H26.9954C26.4472 20.2254 24.7069 16.7404 21.9616 13.9948C21.9544 13.9875 21.9471 13.9803 21.9391 13.9723V13.9716Z" fill="#0077B6"/>
<path d="M8.01274 0.026123H0.787043C0.352371 0.026123 0 0.378551 0 0.813294V8.04016C0 8.4749 0.352371 8.82733 0.787043 8.82733H8.01274C8.44741 8.82733 8.79978 8.4749 8.79978 8.04016V0.813294C8.79978 0.378551 8.44741 0.026123 8.01274 0.026123Z" fill="#F7941D"/>
</svg>
