<svg width="40" height="24" viewBox="0 0 40 24" fill="none" xmlns="http://www.w3.org/2000/svg">
<path d="M16.0552 12.4179C15.8699 12.2403 15.6247 12.1501 15.3207 12.1501H9.67864C9.37364 12.1501 9.13238 12.2393 8.95487 12.4179C8.77736 12.5964 8.68616 12.8848 8.68616 13.281C8.68616 13.6773 8.7754 13.95 8.95487 14.1354C9.13238 14.3198 9.37364 14.413 9.67864 14.413H15.3207C15.6247 14.413 15.8689 14.3198 16.0552 14.1354C16.2396 13.95 16.3328 13.6655 16.3328 13.281C16.3328 12.8965 16.2396 12.5964 16.0552 12.4179Z" fill="#F7941D"/>
<path d="M39.5532 4.22854V6.47179H38.0056L35.6637 7.94212C34.8163 8.47179 34.0612 8.89161 33.4011 9.20254C32.7382 9.51446 32.1174 9.75183 31.5349 9.9176C30.9523 10.0834 30.3874 10.1883 29.8372 10.2354C29.288 10.2815 28.7084 10.306 28.1004 10.306H24.5277V10.2864L24.5071 10.306C23.5283 10.306 22.7712 10.1236 22.2338 9.75968C21.6993 9.39578 21.3443 8.82392 21.1716 8.04119H21.053C20.8941 8.86316 20.5999 9.4458 20.1703 9.7891C19.7398 10.1334 19.0817 10.306 18.1952 10.306H13.9467V10.2864L13.9261 10.306H13.8261C12.6747 10.306 11.8323 10.0775 11.2959 9.6204C10.7604 9.16331 10.4583 8.40706 10.3926 7.34673L7.27592 7.86365C7.30338 8.11475 7.32201 8.35311 7.33574 8.57773C7.34849 8.80333 7.35535 9.02206 7.35535 9.23393C7.35535 10.0539 7.26023 10.818 7.06801 11.5262C6.87677 12.2344 6.56784 12.8534 6.14613 13.383C5.72246 13.9127 5.17915 14.3256 4.51815 14.6238C3.85617 14.922 3.06179 15.0701 2.13599 15.0701H0L1.48186 12.6503L1.51618 12.6601C2.00948 12.7974 2.52632 12.8396 3.03237 12.7641C3.31775 12.7209 3.57568 12.6562 3.80419 12.5699C4.25433 12.3972 4.61818 12.155 4.89572 11.845C5.17326 11.5341 5.37235 11.1604 5.492 10.7229C5.61066 10.2864 5.66951 9.79695 5.66951 9.25453C5.66951 8.89749 5.64989 8.52672 5.61066 8.1432C5.61066 8.13928 5.61066 8.13536 5.60968 8.13143C5.53711 7.43207 5.34293 6.75134 5.04969 6.11279L4.53972 4.99852L6.74044 4.27169L6.97974 5.72143L10.373 5.16527L9.87873 3.4507L12.1 3.0407V6.63462C12.1 7.18979 12.2295 7.56743 12.4874 7.76556C12.7454 7.9637 13.172 8.06375 13.7682 8.06375H19.3259C20.4243 8.06375 20.9735 7.54094 20.9735 6.49533L20.4793 3.20549L22.7006 2.79548V6.49533C22.7006 7.54094 23.2174 8.06375 24.2491 8.06375H28.0994C28.7477 8.06375 29.3439 8.05002 29.8863 8.02452C30.4286 7.99803 30.9582 7.93526 31.474 7.83521C31.9909 7.73614 32.5195 7.59195 33.0628 7.39872C33.6051 7.20745 34.2073 6.95242 34.8693 6.63462L36.2393 5.9794V5.87935L33.1824 5.22412L29.5499 4.32957V5.93721H27.7836V4.40019C27.7836 3.68121 27.9582 3.14565 28.3093 2.79352C28.6594 2.44138 29.1537 2.26581 29.7882 2.26581C29.9608 2.26581 30.1618 2.28543 30.3933 2.32565C30.6257 2.36488 30.9994 2.45218 31.5152 2.58656L35.9216 3.73025C37.1926 4.06473 38.2841 4.23148 39.1972 4.23148H39.5541L39.5532 4.22854Z" fill="#0077B6"/>
<path d="M21.615 12.4179C21.4306 12.2403 21.1854 12.1501 20.8804 12.1501H20.0154C19.7104 12.1501 19.4692 12.2393 19.2917 12.4179C19.1142 12.5964 19.0229 12.8848 19.0229 13.281C19.0229 13.6773 19.1122 13.95 19.2917 14.1354C19.4692 14.3198 19.7104 14.413 20.0154 14.413H20.8804C21.1854 14.413 21.4296 14.3198 21.615 14.1354C21.8003 13.95 21.8925 13.6655 21.8925 13.281C21.8925 12.8965 21.8003 12.5964 21.615 12.4179Z" fill="#F7941D"/>
<path d="M37.6477 0.267776C37.4633 0.0902384 37.2181 0 36.9131 0H36.0482C35.7431 0 35.5019 0.0892575 35.3244 0.267776C35.1449 0.447276 35.0557 0.734671 35.0557 1.13094C35.0557 1.52722 35.1449 1.7999 35.3244 1.98529C35.5019 2.16969 35.7431 2.26287 36.0482 2.26287H36.9131C37.2181 2.26287 37.4623 2.16969 37.6477 1.98529C37.8331 1.7999 37.9252 1.51545 37.9252 1.13094C37.9252 0.746441 37.8331 0.446295 37.6477 0.267776Z" fill="#F7941D"/>
<path d="M39.5532 8.04608H38.599L33.9327 10.7239C32.8922 11.3212 31.7193 11.6459 30.5199 11.6704L24.0697 11.7989V14.4129H39.5522V8.0451L39.5532 8.04608Z" fill="#F7941D"/>
<path d="M5.37234 23.896H3.69826L2.47825 21.2026C2.13402 21.3693 1.76037 21.4792 1.3573 21.5341V23.896H0.000976562V16.1913H1.3573V20.1687C1.627 20.1207 1.87022 20.0343 2.0899 19.9098C2.44393 19.7077 2.73619 19.436 2.96764 19.0937C3.1981 18.7514 3.36973 18.3649 3.48055 17.9353C3.59235 17.5057 3.64727 16.6503 3.64727 16.1913H5.02419C5.02419 16.8387 4.92808 17.8705 4.73684 18.4669C4.54462 19.0623 4.26512 19.5939 3.89637 20.0618C3.8081 20.1736 3.71493 20.2805 3.61784 20.3806L5.37332 23.896H5.37234Z" fill="#0077B6"/>
<path d="M10.5858 20.3521V23.896H9.19417V20.6091C9.19417 20.3041 9.1265 20.0697 8.99116 19.9049C8.85583 19.7401 8.6636 19.6587 8.41352 19.6587C7.71525 19.6587 7.36612 20.1364 7.36612 21.0917V23.896H5.97449V16.1913H7.36612V19.437H7.4995C7.55147 19.0711 7.67504 18.7984 7.87413 18.618C8.07321 18.4385 8.3743 18.3482 8.77737 18.3482C9.35305 18.3482 9.79731 18.5228 10.1131 18.872C10.4279 19.2212 10.5848 19.7146 10.5848 20.3512L10.5858 20.3521Z" fill="#0077B6"/>
<path d="M15.8747 22.6533V20.6395C15.8747 19.9206 15.6345 19.3732 15.1559 18.9985C14.6763 18.6238 13.9437 18.4296 12.9581 18.4159L11.7714 18.4002L11.6685 19.6636L13.0601 19.6999C13.5495 19.7136 13.9192 19.7881 14.1673 19.9235C14.4154 20.0589 14.54 20.2717 14.54 20.563V20.5797C14.4262 20.5532 14.3115 20.5326 14.1987 20.5169C13.981 20.4855 13.7231 20.4708 13.4259 20.4708C12.6531 20.4708 12.0549 20.6337 11.6341 20.9583C11.2134 21.284 11.0026 21.7509 11.0026 22.361C11.0026 22.8848 11.1634 23.2889 11.4861 23.5733C11.8077 23.8578 12.2579 24 12.8365 24C13.1719 24 13.4602 23.948 13.7015 23.8431C13.9427 23.7381 14.1301 23.5812 14.2644 23.3703C14.3733 23.1977 14.4419 22.9897 14.4684 22.7465H14.592L14.6802 23.948L16.6319 23.896V22.7661L15.8767 22.6533H15.8747ZM14.388 22.2276C14.287 22.4022 14.135 22.5454 13.9329 22.6592C13.7309 22.772 13.4789 22.8288 13.1778 22.8288C12.9277 22.8288 12.7374 22.7798 12.608 22.6817C12.4776 22.5846 12.4128 22.4434 12.4128 22.258C12.4128 21.847 12.7718 21.642 13.4916 21.642C13.6829 21.642 13.8662 21.6469 14.0408 21.6547C14.1899 21.6616 14.3556 21.6851 14.538 21.7234C14.5331 21.8951 14.4821 22.0638 14.388 22.2276Z" fill="#0077B6"/>
<path d="M21.5668 18.9907C21.1922 18.563 20.6616 18.3482 19.9771 18.3482C19.2062 18.3482 18.7747 18.7111 18.6825 19.437H18.5384V16.1913H17.1467V23.896C17.4105 23.9274 17.6685 23.9519 17.9225 23.9706C18.1755 23.9892 18.4324 23.999 18.6923 23.999C19.7878 23.999 20.6342 23.7205 21.2324 23.1643C21.8296 22.6072 22.1288 21.8244 22.1288 20.8141C22.1288 20.0265 21.9414 19.4184 21.5658 18.9907H21.5668ZM20.237 22.1991C19.9231 22.5258 19.4808 22.6896 18.9091 22.6896C18.7865 22.6896 18.6629 22.6866 18.5393 22.6817V20.8347C18.5393 20.051 18.9297 19.6587 19.7103 19.6587C20.029 19.6587 20.2742 19.7587 20.4478 19.9588C20.6204 20.1589 20.7067 20.4443 20.7067 20.8141C20.7067 21.4095 20.5498 21.8715 20.237 22.1981V22.1991Z" fill="#0077B6"/>
<path d="M27.6385 21.0201C27.6385 20.1501 27.4266 19.488 27.002 19.0319C26.5773 18.5767 25.9762 18.3482 25.1994 18.3482C24.4227 18.3482 23.7901 18.5954 23.3527 19.0888C22.9163 19.5821 22.6986 20.2737 22.6986 21.1633C22.6986 22.053 22.9556 22.7788 23.4695 23.2673C23.9824 23.7558 24.7101 24 25.6525 24C25.8751 24 26.1301 23.9912 26.4175 23.9735C26.7048 23.9568 27.0236 23.9176 27.3737 23.8558L27.2403 22.5414C26.9902 22.5856 26.745 22.6209 26.5057 22.6464C26.2664 22.6719 26.0232 22.6846 25.7771 22.6846C25.2289 22.6846 24.8071 22.5512 24.511 22.2844C24.3462 22.1354 24.2275 21.949 24.154 21.7244H27.611C27.6316 21.5017 27.6414 21.2673 27.6414 21.0211L27.6385 21.0201ZM24.0853 20.7582C24.1236 20.4502 24.2168 20.2011 24.3648 20.0108C24.5649 19.7518 24.8464 19.6224 25.2102 19.6224C25.5456 19.6224 25.8065 19.7204 25.9928 19.9147C26.1801 20.1099 26.2733 20.3904 26.2733 20.7572H24.0863L24.0853 20.7582Z" fill="#0077B6"/>
<path d="M33.1912 21.0201C33.1912 20.1501 32.9794 19.488 32.5547 19.0319C32.1301 18.5767 31.5289 18.3482 30.7522 18.3482C29.9754 18.3482 29.3419 18.5954 28.9055 19.0888C28.4691 19.5821 28.2504 20.2737 28.2504 21.1633C28.2504 22.053 28.5073 22.7788 29.0212 23.2673C29.5351 23.7558 30.2618 24 31.2043 24C31.4269 24 31.6819 23.9912 31.9692 23.9735C32.2566 23.9568 32.5753 23.9176 32.9244 23.8558L32.7911 22.5414C32.541 22.5856 32.2958 22.6209 32.0565 22.6464C31.8172 22.6719 31.574 22.6846 31.3278 22.6846C30.7806 22.6846 30.3579 22.5512 30.0617 22.2844C29.897 22.1354 29.7783 21.949 29.7048 21.7244H33.1608C33.1814 21.5017 33.1912 21.2673 33.1912 21.0211V21.0201ZM29.6391 20.7582C29.6773 20.4502 29.7705 20.2011 29.9176 20.0108C30.1186 19.7518 30.4001 19.6224 30.763 19.6224C31.0984 19.6224 31.3592 19.7204 31.5465 19.9147C31.7329 20.1099 31.826 20.3904 31.826 20.7572H29.6391V20.7582Z" fill="#0077B6"/>
<path d="M39.5532 20.563H38.1665C38.1665 20.2413 38.1076 20.0098 37.989 19.8695C37.8713 19.7293 37.681 19.6586 37.4212 19.6586C37.0818 19.6586 36.8288 19.8234 36.6611 20.152C36.4934 20.4816 36.4091 20.9485 36.4091 21.5547V22.7052H37.683V23.897H33.8719V22.7052H35.0223V19.6439H34.0769V18.4522H36.2031L36.3649 19.6802H36.5581C36.613 18.7935 37.0769 18.3492 37.9498 18.3492C38.4666 18.3492 38.8628 18.5395 39.1384 18.9201C39.414 19.3006 39.5522 19.848 39.5522 20.564L39.5532 20.563Z" fill="#0077B6"/>
</svg>
