<svg width="134" height="119" viewBox="0 0 134 119" fill="none" xmlns="http://www.w3.org/2000/svg">
<path fill-rule="evenodd" clip-rule="evenodd" d="M133.17 70.3903L109.433 91.2341L85.6548 97.856L78.4594 104.174L61.9141 118.702L25.9811 97.7956L15.5982 91.7542L0.0246572 82.6926L0 75.0466L19.3043 58.0982L16.644 36.9326C15.8175 36.7964 15.0523 36.5231 14.362 36.1205C14.3518 36.1148 14.3416 36.1088 14.3314 36.1026C14.3297 36.102 14.3282 36.1012 14.3271 36.1C12.9996 35.3277 11.6719 34.5553 10.3438 33.7829C7.92578 32.3758 6.42598 29.3853 6.41408 25.1342C6.39027 16.5739 12.4005 6.15118 19.8408 1.84978C22.0038 0.600143 24.0485 0.00511447 25.8629 6.94007e-06H25.8697C27.1927 -0.00169557 28.3923 0.309864 29.4245 0.909999C30.7656 1.69088 32.1064 2.4712 33.4469 3.25095L33.4325 3.24329C35.859 4.64616 37.3647 7.64087 37.3766 11.9014C37.397 19.0222 33.2369 27.436 27.554 32.5401L25.3298 53.7619L29.8165 52.5122L32.3238 51.8133L35.6269 50.8931L38.0968 50.2053L38.5508 50.0785L39.0133 49.9499L40.4306 49.555L43.1624 48.7931L44.6817 48.37L45.0397 48.2704L45.4605 48.153L46.0982 47.975H46.0991L47.5155 47.5809L59.3846 37.1598L61.1276 35.6293L64.4707 32.6942L69.5576 28.2285L71.2529 26.7396L75.6741 29.3113L76.5107 29.7982L80.0944 31.8838H80.0952L84.5155 34.4554L88.9358 37.0279L97.7764 42.172H97.7773L104.625 46.1559L115.251 52.3394L115.291 52.3624L124.197 57.544L133.143 62.7494L133.17 70.3903ZM26.5746 10.9029C25.7762 11.0042 24.9081 11.3081 24.0001 11.8325C20.112 14.0806 16.9713 19.5269 16.984 24.0003C16.9866 25.0167 17.1524 25.896 17.4517 26.6205C18.2483 26.52 19.1156 26.2161 20.0227 25.6926C23.9108 23.4444 27.0541 17.993 27.0422 13.5196C27.0388 12.5049 26.8738 11.6273 26.5746 10.9029Z" fill="#F9AC31"/>
<path d="M32.5788 59.3499L25.1946 55.0527L24.7415 59.3805L24.7083 59.6972L24.6752 60.0173L24.6403 60.3424L24.6054 60.6744L24.5706 61.0158L24.5332 61.3733L24.4924 61.7564L24.1429 65.0967L24.0877 65.6219L24.0375 66.0952L23.6455 65.8671L23.2179 65.6185L20.0151 63.7551L19.8833 62.7064L19.8297 62.2833L19.7821 61.9045L19.7379 61.5504L19.6954 61.2107L19.6537 60.8813L19.6138 60.5595L19.5738 60.242L19.3043 58.0977L16.9551 60.1603L11.8691 64.6259L0 75.0462L12.5731 82.3627L13.2507 82.756L27.6263 68.6873C27.6291 68.6844 27.6322 68.6816 27.6356 68.6788L33.9069 62.5412C34.0387 62.4127 34.1951 62.3131 34.3668 62.2484L36.313 61.5223L32.5788 59.3499Z" fill="#FFE164"/>
<path d="M124.961 58.6726C124.49 58.1176 123.658 58.0503 123.105 58.5219L107.689 71.6491L107.582 71.5853L102.916 68.7864L98.1508 65.927L92.6669 62.6377L88.1301 59.9163L89.2524 58.859L93.9184 54.4623C94.216 54.1814 94.3673 53.7779 94.3265 53.3701C94.2857 52.9624 94.0578 52.5972 93.7101 52.381L91.8804 51.2454L83.5244 46.0578L86.8097 42.4783L96.4308 48.1902L101.036 50.9245L105.601 53.6349L108.602 55.4165C108.3 55.5533 107.998 55.7122 107.698 55.8933C105.43 57.2612 103.987 59.4694 103.979 61.3251C103.977 61.7805 104.062 62.2147 104.242 62.6096C104.885 64.0202 106.573 64.5607 108.501 64.1666C109.316 63.9998 110.174 63.6652 111.013 63.1596C112.698 62.1432 113.928 60.6628 114.452 59.208C114.807 58.224 114.838 57.2518 114.469 56.4423C114.221 55.8992 113.817 55.4855 113.305 55.2037C113.221 55.1135 113.124 55.0352 113.014 54.9688L112.343 54.5704L107.848 51.9017L103.35 49.2322L98.8497 46.5601L78.8575 34.6902C78.3576 34.394 77.7234 34.4595 77.2957 34.8528L57.2525 53.2441L56.4091 54.0171L36.3133 61.5209L34.3671 62.247C34.1954 62.3117 34.0389 62.4113 33.9071 62.5398L27.6359 68.6774C27.6325 68.6802 27.6294 68.6831 27.6265 68.6859L13.251 82.7546L15.6146 84.1302L28.748 71.2771L37.6396 76.6256L42.9875 79.8425L47.1094 82.3213L39.3477 89.9179L36.8982 92.3142L35.7453 93.4438L35.0252 94.1478L34.5388 94.6236L34.2073 94.948L36.5709 96.3236L36.9994 95.9039L37.5988 95.3174L38.4737 94.4611L39.914 93.0522L49.4441 83.725L53.7394 86.3086L59.1264 89.5493L61.7273 91.1131C59.6799 93.6166 58.4088 96.3023 58.0756 98.5215C57.9854 99.1225 57.9642 99.6878 58.0143 100.207L53.5056 104.62L52.5083 105.595L54.8719 106.971L55.9917 105.875L59.2472 102.688C59.8857 103.177 60.713 103.378 61.6576 103.323C64.1997 103.173 67.5861 101.163 70.397 97.8865C71.8322 96.2138 72.9179 94.4415 73.6057 92.7696C74.3607 90.9352 74.6362 89.2216 74.3667 87.8919L75.6539 86.6321L77.5431 85.9264L77.9793 85.7638L94.664 79.5343C95.1478 79.3538 95.4794 78.9103 95.5177 78.3945C95.5177 78.386 95.5179 78.3774 95.5185 78.3689C95.5457 77.8633 95.283 77.3874 94.8375 77.1423L89.879 74.4165L83.4751 70.8966L79.0548 68.4663L80.7195 66.8983L81.0681 66.5705L81.557 66.1092L82.2465 65.4596L83.2668 64.4986L84.9757 62.8889L86.1363 61.795L88.0255 62.928L93.9422 66.4778L100.7 70.5314L105.45 73.3806L107.145 74.3987C107.63 74.689 108.245 74.6379 108.676 74.2718L124.811 60.5309C125.365 60.0593 125.433 59.2268 124.961 58.6726Z" fill="white"/>
<path d="M89.4805 52.8579L80.7836 47.4584C80.4511 47.2516 80.2258 46.9043 80.1723 46.5161C80.1195 46.1288 80.2437 45.7329 80.5081 45.4452L84.4931 41.1021L78.3536 37.457L59.6377 54.6311L60.6171 55.2006L60.618 55.2014L64.6625 57.5543L69.11 60.1421L70.4517 60.9227L74.7121 63.4024L75.2486 63.7131L75.7834 64.0247L76.3191 64.3371L76.8539 64.6478L77.3895 64.9594L77.6003 65.082L77.9251 65.2709L78.3426 65.5135L78.7652 65.116L79.2319 64.6751L79.9495 64L81.1313 62.8857L83.6412 60.5209L90.8638 53.7168L89.4805 52.8579Z" fill="#FAB438"/>
<path fill-rule="evenodd" clip-rule="evenodd" d="M37.3767 11.9014C37.3971 19.0221 33.237 27.4359 27.5541 32.5401L25.3299 53.7619L25.1947 55.0532L24.7415 59.381L24.7084 59.6977L24.6752 60.0177L24.6404 60.3429L24.6055 60.6749L24.5706 61.0163L24.5332 61.3738L24.4924 61.7568L24.143 65.0972L24.0877 65.6224L24.0375 66.0957L23.6456 65.8676L23.2179 65.619L20.0151 63.7556L19.8834 62.7068L19.8298 62.2838L19.7822 61.905L19.738 61.5508L19.6955 61.2112L19.6538 60.8818L19.6138 60.56L19.5739 60.2425L19.3044 58.0981L16.644 36.9326C15.8176 36.7964 15.0524 36.5231 14.362 36.1205C14.3518 36.1148 14.3416 36.1088 14.3314 36.1026C14.3297 36.102 14.3283 36.1012 14.3272 36.1C12.9997 35.3276 11.6719 34.5553 10.3439 33.7829C7.92583 32.3758 6.42604 29.3853 6.41413 25.1342C6.39033 16.5739 12.4005 6.15118 19.8408 1.84978C22.0038 0.600143 24.0486 0.00511447 25.863 6.94007e-06H25.8698C27.1927 -0.00169557 28.3924 0.309864 29.4246 0.909999C30.7656 1.69088 32.1064 2.4712 33.447 3.25095L33.4325 3.24329C35.859 4.64616 37.3648 7.64087 37.3767 11.9014ZM27.0422 13.5196C27.0388 12.5041 26.8739 11.6264 26.5746 10.9029C25.7762 11.0033 24.9082 11.3072 24.0001 11.8324C20.1121 14.0798 16.9713 19.5269 16.9841 24.0003C16.9867 25.0167 17.1524 25.896 17.4517 26.6204C18.2484 26.52 19.1156 26.2161 20.0228 25.6926C23.9109 23.4444 27.0541 17.993 27.0422 13.5196Z" fill="#EE394E"/>
<path d="M74.6103 69.0326L70.5301 66.7896L64.6534 63.5591L63.7853 63.0815L59.9278 65.1867C59.666 66.7683 57.9196 68.3533 55.6478 68.9424C53.024 69.6226 50.6927 68.7194 50.4402 66.9232C50.1877 65.1279 52.11 63.1215 54.733 62.4405C56.3288 62.0268 57.8159 62.1996 58.7936 62.8023L63.157 60.4205C63.5506 60.2051 64.0276 60.206 64.4212 60.4222L67.0391 61.8617L72.2237 64.7117L76.627 67.1326L77.6635 66.1554L78.3428 65.5153L78.1957 65.4293L77.9253 65.2726L77.6005 65.0837L77.541 65.0496L75.2633 63.7234L75.2488 63.7148L75.2386 63.7097L74.8977 63.5114L73.8885 62.924L74.1903 63.1002L73.7899 62.867L73.7303 62.8321L73.8885 62.924L73.5994 62.7563L73.5645 62.7359L73.3231 62.5954L73.4115 62.6474L73.4362 62.661L73.3588 62.6159L73.1088 62.4703L68.2719 59.6561L67.7992 59.3811L64.6627 57.556L60.6182 55.2031L60.6174 55.2023L59.6379 54.6328L57.9995 56.1353C57.8771 56.2485 57.7257 56.3413 57.5702 56.3992L39.2598 63.2356L43.4335 65.6642L46.6601 67.5412L49.0841 68.9518L55.9292 72.9348L61.2746 76.0444L71.0368 72.3993L74.6103 69.0326Z" fill="#F9A746"/>
<path d="M87.6317 76.1926L82.0551 73.1272L77.0379 70.3691L72.6491 74.5045C72.5216 74.6246 72.3711 74.7182 72.2061 74.7795L64.2217 77.7606L66.5003 79.086L70.8211 81.6006L70.8441 81.6142L73.1405 82.9507L75.0323 84.0514L91.0487 78.0713L87.6317 76.1926Z" fill="#F9A746"/>
<path d="M95.7924 75.6689L91.3789 73.1007L80.7188 66.8984L79.054 68.4665L83.4744 70.8968L89.8782 74.4167L94.8367 77.1424C95.2822 77.3876 95.545 77.8635 95.5177 78.3691C95.5172 78.3776 95.5169 78.3861 95.5169 78.3946C95.4786 78.9105 95.1471 79.354 94.6633 79.5345L77.9785 85.7639L79.5327 86.6688L85.6271 90.2143L109.405 83.589L95.7924 75.6689Z" fill="#F9A746"/>
<path d="M74.6103 69.0326L70.5301 66.7896L64.6534 63.5591L63.7853 63.0815L59.9278 65.1867C59.666 66.7683 57.9196 68.3533 55.6478 68.9424C53.024 69.6226 50.6927 68.7194 50.4402 66.9232C50.1877 65.1279 52.11 63.1215 54.733 62.4405C56.3288 62.0268 57.8159 62.1996 58.7936 62.8023L63.157 60.4205C63.5506 60.2051 64.0276 60.206 64.4212 60.4222L67.0391 61.8617L72.2237 64.7117L76.627 67.1326L77.6635 66.1554L78.3428 65.5153L78.1957 65.4293L77.9253 65.2726L77.6005 65.0837L77.5453 65.0522L74.8977 63.5114L73.7899 62.867L73.7252 62.8287L73.6972 62.8125L73.4455 62.667L73.1088 62.4703L68.2719 59.6561L67.7992 59.3811L64.6627 57.556L60.6182 55.2031L60.6174 55.2023L59.6379 54.6328L57.9995 56.1353C57.8771 56.2485 57.7257 56.3413 57.5702 56.3992L39.2598 63.2356L43.4335 65.6642L46.6601 67.5412L49.0841 68.9518L55.9292 72.9348L61.2746 76.0444L71.0368 72.3993L74.6103 69.0326Z" fill="#FAAB4C"/>
<path d="M87.6317 76.1926L82.0551 73.1272L77.0379 70.3691L72.6491 74.5045C72.5216 74.6246 72.3711 74.7182 72.2061 74.7795L64.2217 77.7606L66.5003 79.086L70.8211 81.6006L70.8441 81.6142L73.1405 82.9507L75.0323 84.0514L91.0487 78.0713L87.6317 76.1926Z" fill="#FAAB4C"/>
<path d="M95.7924 75.6689L91.3789 73.1007L80.7188 66.8984L79.054 68.4665L83.4744 70.8968L89.8782 74.4167L94.8367 77.1424C95.2822 77.3876 95.545 77.8635 95.5177 78.3691C95.5172 78.3776 95.5169 78.3861 95.5169 78.3946C95.4786 78.9105 95.1471 79.354 94.6633 79.5345L77.9785 85.7639L79.5327 86.6688L81.1498 87.4571C81.626 87.1174 102.485 81.1059 102.953 80.7696C103.193 80.5968 95.5501 75.8392 95.7924 75.6689Z" fill="#FAAB4C"/>
<path d="M74.6103 69.0326L70.5301 66.7896L64.6534 63.5591L63.7853 63.0815L59.9278 65.1867C59.666 66.7683 57.9196 68.3533 55.6478 68.9424C53.024 69.6226 50.6927 68.7194 50.4402 66.9232C50.1877 65.1279 52.11 63.1215 54.733 62.4405C56.3288 62.0268 57.8159 62.1996 58.7936 62.8023L63.157 60.4205C63.5506 60.2051 64.0276 60.206 64.4212 60.4222L67.0391 61.8617L72.2237 64.7117L76.627 67.1326L77.6635 66.1554L78.3428 65.5153L77.5453 65.0522L74.8977 63.5114L73.7899 62.867L73.7252 62.8287L73.6972 62.8125L73.4455 62.667L73.5645 62.7359L73.6955 62.8117L73.4115 62.6474L73.1088 62.4703L68.2719 59.6561L67.7992 59.3811L64.6627 57.556L61.6784 55.8203L61.5713 55.7573L59.6379 54.6328L57.9995 56.1353C57.8771 56.2485 57.7257 56.3413 57.5702 56.3992L39.2598 63.2356L43.4335 65.6642L46.6601 67.5412L49.0841 68.9518L55.9292 72.9348L61.2746 76.0444L71.0368 72.3993L74.6103 69.0326Z" fill="#FAAF52"/>
<path d="M82.0551 73.1272L77.0379 70.3691L72.6491 74.5045C72.5216 74.6246 72.3711 74.7182 72.2061 74.7795L64.2217 77.7606L66.5003 79.086L70.8211 81.6006L70.8441 81.6142L73.1405 82.9507L75.0323 84.0514L91.0487 78.0713L87.6317 76.1926L82.0551 73.1272Z" fill="#FAAF52"/>
<path d="M91.3795 73.1007L80.7194 66.8984L79.0547 68.4665L83.475 70.8968L89.8789 74.4167L94.8374 77.1424C95.2829 77.3876 95.5456 77.8635 95.5184 78.3691C96.0455 78.175 96.3916 78.0294 96.5012 77.9503C96.9816 77.6055 90.8957 73.442 91.3795 73.1007Z" fill="#FAAF52"/>
<path d="M74.6103 69.0326L70.5301 66.7896L64.6534 63.5591L63.7853 63.0815L59.9278 65.1867C59.666 66.7683 57.9196 68.3533 55.6478 68.9424C53.024 69.6226 50.6927 68.7194 50.4402 66.9232C50.1877 65.1279 52.11 63.1215 54.733 62.4405C56.3288 62.0268 57.8159 62.1996 58.7936 62.8023L63.157 60.4205C63.5506 60.2051 64.0276 60.206 64.4212 60.4222L67.0391 61.8617L72.2237 64.7117L76.627 67.1326L77.6635 66.1554L78.3428 65.5153L78.1379 65.3969L73.7252 62.8287L73.4115 62.6474L73.1088 62.4703L68.2719 59.6561L67.7992 59.3811L64.6627 57.556L61.6784 55.8203L61.5713 55.7573L59.6379 54.6328L57.9995 56.1353C57.8771 56.2485 57.7257 56.3413 57.5702 56.3992L39.2598 63.2356L43.4335 65.6642L46.6601 67.5412L49.0841 68.9518L55.9292 72.9348L61.2746 76.0444L71.0368 72.3993L74.6103 69.0326Z" fill="#FBB258"/>
<path d="M77.0379 70.3691L72.6491 74.5045C72.5216 74.6246 72.3711 74.7182 72.2061 74.7795L64.2217 77.7606L66.5003 79.086L70.8211 81.6006L70.8441 81.6142C70.9622 81.5299 72.0794 82.0288 72.1968 81.9445C73.325 81.1384 82.9572 77.9777 87.6317 76.1926L82.0551 73.1272L77.0379 70.3691Z" fill="#FBB258"/>
<path d="M89.8789 74.4167C89.0388 73.1969 86.3981 70.9317 86.966 70.5324L80.7194 66.8984L79.0547 68.4665L83.475 70.8968L89.8789 74.4167Z" fill="#FBB258"/>
<path d="M74.6103 69.0326L70.5301 66.7896L64.6534 63.5591L63.7853 63.0815L59.9278 65.1867C59.666 66.7683 57.9196 68.3533 55.6478 68.9424C53.024 69.6226 50.6927 68.7194 50.4402 66.9232C50.1877 65.1279 52.11 63.1215 54.733 62.4405C56.3288 62.0268 57.8159 62.1996 58.7936 62.8023L63.157 60.4205C63.5506 60.2051 64.0276 60.206 64.4212 60.4222L67.0391 61.8617L72.2237 64.7117L76.627 67.1326L77.6635 66.1554L78.3428 65.5153L78.1379 65.3969L73.7252 62.8287L73.4115 62.6474L73.1088 62.4703L68.2719 59.6561L67.3656 59.1291L61.7107 55.8382L61.5713 55.7573L59.6379 54.6328L57.9995 56.1353C57.8771 56.2485 57.7257 56.3413 57.5702 56.3992L39.2598 63.2356L43.4335 65.6642L46.6601 67.5412L49.0841 68.9518L55.9292 72.9348L61.2746 76.0444L71.0368 72.3993L74.6103 69.0326Z" fill="#FBB65D"/>
<path d="M72.6491 74.5045C72.5216 74.6246 72.3711 74.7182 72.2061 74.7795L64.2217 77.7606L66.5003 79.086C66.6559 78.9745 67.5631 79.2988 67.7195 79.1873C69.3247 78.0398 78.2019 74.8902 82.0551 73.1272L77.0379 70.3691L72.6491 74.5045Z" fill="#FBB65D"/>
<path d="M82.5525 67.9651L80.7194 66.8984L79.0547 68.4665L83.475 70.8968C82.9309 69.7808 81.931 68.4009 82.5525 67.9651Z" fill="#FBB65D"/>
<path d="M73.7252 62.8287L73.4115 62.6474L73.1088 62.4703L67.9794 59.4858L67.3656 59.1291L61.7107 55.8382L61.5713 55.7573L61.3536 55.6305L59.6379 54.6328L57.9995 56.1353C57.8771 56.2485 57.7257 56.3413 57.5702 56.3992L39.2598 63.2356L43.4335 65.6642L46.6601 67.5412L49.0841 68.9518L55.9292 72.9348L61.2746 76.0444L71.0368 72.3993L74.6103 69.0326L70.5301 66.7896L64.6534 63.5591L63.7853 63.0815L59.9278 65.1867C59.666 66.7683 57.9196 68.3533 55.6478 68.9424C53.024 69.6234 50.6927 68.7194 50.4402 66.9232C50.1877 65.1279 52.11 63.1215 54.733 62.4405C56.3288 62.0268 57.8159 62.1996 58.7936 62.8023L63.157 60.4205C63.5506 60.2051 64.0276 60.206 64.4212 60.4222L67.0391 61.8617L72.2237 64.7117L76.627 67.1326L77.6635 66.1554C77.7306 65.8498 77.8701 65.5859 78.1379 65.3969L73.7252 62.8287Z" fill="#FBBA63"/>
<path d="M67.9794 59.4858L67.3656 59.1291L61.7107 55.8382L61.5713 55.7573L61.3536 55.6305L59.6379 54.6328L57.9995 56.1353C57.8771 56.2485 57.7257 56.3413 57.5702 56.3992L39.2598 63.2356L43.4335 65.6642L46.6601 67.5412L49.0841 68.9518L57.8108 74.0295C58.0454 73.861 58.5301 73.838 58.7647 73.6703C61.5628 71.6715 67.6504 68.8028 70.5301 66.7896L64.6534 63.5591L63.7853 63.0815L59.9278 65.1867C59.666 66.7683 57.9196 68.3533 55.6478 68.9424C53.024 69.6234 50.6927 68.7194 50.4402 66.9232C50.1877 65.1279 52.11 63.1215 54.733 62.4405C56.3288 62.0268 57.8159 62.1996 58.7936 62.8023L63.157 60.4205C63.5506 60.2051 64.0276 60.206 64.4212 60.4222L67.0391 61.8617L72.2237 64.7117C72.614 64.0187 73.0093 63.3309 73.7252 62.8287L67.9794 59.4858Z" fill="#FCBE68"/>
<path d="M42.9879 79.8407L37.64 76.6238L28.7484 71.2754L16.1353 83.6194L15.5938 84.1157L16.1183 84.4213L25.9801 90.1596L26.8031 90.638L27.632 91.1207L30.1173 92.567C30.2184 92.4529 31.9656 93.2973 34.5393 94.6219L35.0256 94.146L35.7457 93.4421L36.8986 92.3124L39.3481 89.9162L47.1098 82.3196L42.9879 79.8407Z" fill="#FAB438"/>
<path d="M30.6953 69.373L39.5623 74.7053L44.9697 77.9579L49.2523 80.5338L52.3411 79.3812L61.0474 76.1303L61.2744 76.0452H61.2753L53.7993 71.6952L49.0848 68.9525L46.6608 67.542L43.4342 65.665L39.2605 63.2363L35.5492 64.6222L30.6953 69.373Z" fill="#FAB438"/>
<path d="M53.74 86.3101L49.4447 83.7266L39.9146 93.0538L38.4743 94.4626L37.5994 95.3189L37 95.9055C42.1617 98.6125 49.0715 102.336 53.5062 104.621L58.015 100.209C57.9648 99.6893 57.986 99.1241 58.0762 98.5231C58.4095 96.3038 59.6805 93.6181 61.7279 91.1146L59.127 89.5508L53.74 86.3101Z" fill="#FAB438"/>
<path d="M96.2305 41.2695L96.358 41.3444L97.4488 41.9794L96.2305 41.2695Z" fill="#FAB438"/>
<path d="M124.198 57.5446L115.292 52.363L115.252 52.34L104.626 46.1565L97.7784 42.1726L97.7775 42.1718L97.4493 41.982L99.8844 43.3984L97.2614 41.8721L96.3585 41.3469L88.9369 37.0285L80.0963 31.8844H80.0954L76.5117 29.7988L75.6751 29.3119L71.254 26.7402L69.5586 28.2291L64.4717 32.6948L61.1287 35.6299L59.3857 37.1604L47.5166 47.5815L49.7 48.8516H49.7008L51.8842 50.1225L54.0676 51.3934H54.0684L57.2534 53.2466L77.2965 34.8552C77.7242 34.462 78.3584 34.3964 78.8584 34.6927L98.8505 46.5626L103.351 49.2346L107.848 51.9042L112.344 54.5729L113.014 54.9712C113.125 55.0376 113.222 55.116 113.306 55.2062C113.818 55.488 114.222 55.9017 114.47 56.4448C114.839 57.2543 114.807 58.2265 114.453 59.2105C113.928 60.6653 112.699 62.1456 111.014 63.162C110.175 63.6677 109.317 64.0022 108.501 64.1691C106.574 64.5632 104.886 64.0226 104.243 62.6121C104.063 62.2171 103.978 61.783 103.98 61.3276C103.988 59.4718 105.431 57.2637 107.699 55.8957C107.999 55.7147 108.3 55.5558 108.603 55.419L105.602 53.6373L101.037 50.9269L96.4316 48.1927L86.8105 42.4808L83.5261 46.0603L91.8812 51.2479L93.7109 52.3834C94.0586 52.5997 94.2865 52.9648 94.3273 53.3726C94.3681 53.7803 94.2176 54.1838 93.92 54.4648L89.2532 58.8615L88.1309 59.9187L92.6677 62.6402L98.1516 65.9295L102.917 68.7888L107.583 71.5877L107.689 71.6516L123.106 58.5244C123.659 58.0528 124.491 58.12 124.962 58.6751C125.434 59.2292 125.366 60.0617 124.812 60.5333L108.677 74.2743C108.246 74.6403 107.631 74.6914 107.146 74.4011L105.451 73.383L100.701 70.5339L93.943 66.4802L88.0263 62.9305L86.1371 61.7975L84.9766 62.8913L83.2676 64.5011L82.2473 65.4621L81.5578 66.1116L81.0689 66.573C88.3859 70.1193 105.934 79.6244 106.489 79.249C107.1 78.837 128.062 60.5648 128.671 60.1477L124.198 57.5446Z" fill="#FAB438"/>
<path d="M77.5438 85.9277L75.6546 86.6334L74.3674 87.8933C74.6369 89.2229 74.3614 90.9365 73.6064 92.771C76.8739 89.8852 79.388 87.66 79.5317 87.5136C79.6218 87.4225 78.5735 86.67 77.5438 85.9277Z" fill="#FAB438"/>
<path d="M59.2477 102.688L55.9922 105.874C57.1315 106.43 57.8321 106.732 57.8984 106.665C58.0106 106.552 59.5036 105.227 61.6581 103.322C60.7135 103.377 59.8862 103.176 59.2477 102.688Z" fill="#FAB438"/>
<path d="M74.4734 84.2572L75.0329 84.0486L70.8217 81.5978L66.5009 79.0832L64.2223 77.7578L61.4344 78.7989L52.1406 82.2695L55.7779 84.4563L61.1793 87.7056L63.5574 89.1365C66.8002 86.0524 70.4383 84.6045 72.6165 85.5647C72.6982 85.6004 72.7775 85.6399 72.8546 85.683L74.0134 84.55C74.1444 84.4214 74.3008 84.321 74.4734 84.2572Z" fill="#FAB438"/>
<path d="M90.8638 53.7168L89.4805 52.8579L80.7836 47.4584C80.4511 47.2516 80.2258 46.9043 80.1723 46.5161C80.1195 46.1288 80.2437 45.7329 80.5081 45.4452L84.4931 41.1021L78.3536 37.457L59.6377 54.6311L60.6171 55.2006L60.618 55.2014L64.6625 57.5543L69.11 60.1421L70.4517 60.9227L74.7121 63.4024L75.2486 63.7131L75.7834 64.0247L76.3191 64.3371L76.8539 64.6478L77.3895 64.9594C77.551 64.8393 78.0357 64.9057 78.7652 65.116L79.2319 64.6751L79.9495 64L81.1313 62.8857L83.6412 60.5209L90.8638 53.7168Z" fill="#FBBB3E"/>
<path d="M42.9871 79.8407L37.6392 76.6238L28.7476 71.2754L15.9687 83.782L15.6201 84.1327L15.8998 84.2945L25.9792 90.1596L26.8022 90.638L27.6312 91.1207L28.4593 91.6025L29.2874 92.0843C29.5357 91.8025 31.8764 92.7389 35.0247 94.146L35.7449 93.4421L36.8978 92.3124L39.3473 89.9162L47.109 82.3196L42.9871 79.8407Z" fill="#FBBB3E"/>
<path d="M93.9418 66.4777L88.0251 62.9279L86.1359 61.7949L84.9754 62.8888L83.2664 64.4985L82.2462 65.4596L81.5566 66.1091C88.7062 68.9216 102.516 75.6167 103.57 74.9051C103.775 74.7663 104.454 74.2122 105.45 73.3805L100.699 70.5314L93.9418 66.4777Z" fill="#FBBB3E"/>
<path d="M30.6943 69.373L39.5613 74.7053L44.9687 77.9579L49.2513 80.5338L52.3401 79.3812L61.0464 76.1303L61.2734 76.0452H61.2743L53.7983 71.6952L49.0838 68.9525L46.6598 67.542L43.4332 65.665L39.2595 63.2363L35.5483 64.6222L30.6943 69.373Z" fill="#FBBB3E"/>
<path d="M53.7393 86.3101L49.4439 83.7266L39.9138 93.0538L38.4735 94.4626L37.5986 95.3189C44.5407 98.512 53.3796 102.811 53.9067 102.278C54.1542 102.027 55.8163 100.537 58.0754 98.5231C58.4087 96.3038 59.6798 93.6181 61.7271 91.1146L59.1263 89.5508L53.7393 86.3101Z" fill="#FBBB3E"/>
<path d="M96.2295 41.2695L96.357 41.3444L97.4479 41.9794L96.2295 41.2695Z" fill="#FBBB3E"/>
<path d="M115.291 52.363L115.251 52.34L104.625 46.1565L100.943 44.0147L97.7765 42.1718L97.4483 41.982L99.8834 43.3984L97.2605 41.8721L96.3575 41.3469L88.9359 37.0285L80.0953 31.8844H80.0945L76.5108 29.7988L75.6742 29.3119L71.253 26.7402L69.5576 28.2291L67.8623 29.7171L65.6364 31.6716L64.4708 32.6948L61.1277 35.6299L59.3847 37.1604L47.5156 47.5815L49.699 48.8516H49.6998L51.8832 50.1225L54.0666 51.3934H54.0674L57.2524 53.2466L77.2955 34.8552C77.7232 34.462 78.3574 34.3964 78.8574 34.6927L98.8495 46.5626L103.35 49.2346L107.847 51.9042L112.343 54.5729L113.013 54.9712C113.124 55.0376 113.221 55.116 113.305 55.2062C113.817 55.488 114.221 55.9017 114.469 56.4448C114.838 57.2543 114.806 58.2265 114.452 59.2105C113.927 60.6653 112.698 62.1456 111.013 63.162C110.174 63.6677 109.316 64.0022 108.5 64.1691C106.573 64.5632 104.885 64.0226 104.242 62.6121C104.062 62.2171 103.977 61.783 103.979 61.3276C103.987 59.4718 105.43 57.2637 107.698 55.8957C107.998 55.7147 108.299 55.5558 108.602 55.419L105.601 53.6373L101.036 50.9269L96.4306 48.1927L86.8095 42.4808L83.5251 46.0603L91.8802 51.2479L93.7099 52.3834C94.0577 52.5997 94.2855 52.9648 94.3263 53.3726C94.3671 53.7803 94.2167 54.1838 93.9191 54.4648L89.2522 58.8615L88.1299 59.9187L92.6667 62.6402L98.1506 65.9295L102.916 68.7888L107.582 71.5877C113.353 66.7067 123.307 58.1549 124.197 57.5446L115.291 52.363Z" fill="#FBBB3E"/>
<path d="M70.8207 81.5978L66.4999 79.0832L64.2213 77.7578L61.4334 78.7989L52.1396 82.2695L55.7769 84.4563L61.1784 87.7056L63.5564 89.1365C66.7992 86.0524 70.4373 84.6045 72.6156 85.5647C73.056 85.1663 73.3425 84.9024 73.4335 84.8105C73.7872 84.4521 70.4679 81.9571 70.8207 81.5978Z" fill="#FBBB3E"/>
<path d="M90.8638 53.7168L89.4805 52.8579L80.7836 47.4584C80.4511 47.2516 80.2258 46.9043 80.1723 46.5161C80.1195 46.1288 80.2437 45.7329 80.5081 45.4452L84.4931 41.1021L78.3536 37.457L59.6377 54.6311L60.6171 55.2006L60.618 55.2014L64.6625 57.5543L69.11 60.1421L70.4517 60.9227L74.7121 63.4024L75.2486 63.7131L75.7834 64.0247L76.3191 64.3371L76.8539 64.6478C77.1948 64.3933 78.045 64.4359 79.2319 64.6751L79.9495 64L81.1313 62.8857L83.6412 60.5209L90.8638 53.7168Z" fill="#FCC345"/>
<path d="M107.698 55.8954C107.998 55.7144 108.3 55.5555 108.602 55.4187L105.601 53.637L101.036 50.9266L96.4308 48.1924L86.8097 42.4805L83.5244 46.06L91.8804 51.2475L93.7101 52.3831C94.0578 52.5993 94.2857 52.9645 94.3265 53.3723C94.3673 53.78 94.216 54.1835 93.9184 54.4644L89.2524 58.8612L88.1301 59.9184L92.6669 62.6399L98.1508 65.9291L102.916 68.7885C104.391 67.5865 106.391 65.9257 108.501 64.1687C106.573 64.5629 104.885 64.0223 104.242 62.6118C104.062 62.2168 103.977 61.7827 103.979 61.3273C103.987 59.4715 105.43 57.2634 107.698 55.8954Z" fill="#FCC345"/>
<path d="M42.9874 79.8407L37.6395 76.6238L28.7479 71.2754L16.0005 83.7505L15.6357 84.1412L16.1501 84.44L25.9795 90.1596L26.8026 90.638L27.6315 91.1207L28.4596 91.6025C28.9264 91.0722 32.0314 92.0792 35.7452 93.4421L36.8981 92.3124L39.3476 89.9162L47.1093 82.3196L42.9874 79.8407Z" fill="#FCC345"/>
<path d="M88.0251 62.9279L86.1359 61.7949L84.9753 62.8888L83.2664 64.4985L82.2461 65.4596C88.854 67.4217 99.1791 71.558 100.653 70.5628C100.667 70.5532 100.683 70.5427 100.699 70.5314L93.9418 66.4777L88.0251 62.9279Z" fill="#FCC345"/>
<path d="M30.6953 69.373L39.5623 74.7053L44.9697 77.9579L49.2523 80.5338L52.3411 79.3812L61.0474 76.1303L61.2744 76.0452L56.3253 73.1654L53.7993 71.6952L49.0848 68.9525L46.6608 67.542L43.4342 65.665L39.2605 63.2363L35.5492 64.6222L30.6953 69.373Z" fill="#FCC345"/>
<path d="M49.4441 83.7266L39.9139 93.0538L38.4736 94.4626C43.7433 96.4486 49.2417 98.5699 49.9151 97.8889C50.5851 97.2113 54.9322 93.3134 59.1264 89.5508L53.7394 86.3101L49.4441 83.7266Z" fill="#FCC345"/>
<path d="M119.724 54.9423L115.251 52.34L104.625 46.1565L100.943 44.0147L97.7765 42.1726L97.4483 41.982L96.23 41.272L96.3575 41.3469L88.9359 37.0285L80.0953 31.8844H80.0945L76.5099 29.7988L75.6741 29.3119L71.253 26.7402L69.5576 28.2291L67.8623 29.7171L65.6364 31.6716L64.4708 32.6948L61.1277 35.6299L59.3847 37.1604L47.5156 47.5815L49.699 48.8516H49.6998L51.8832 50.1225L54.0666 51.3934H54.0674L57.2524 53.2466L77.2955 34.8552C77.7232 34.462 78.3574 34.3964 78.8574 34.6927L98.8495 46.5626L103.35 49.2346L107.847 51.9042L112.343 54.5729L113.013 54.9712C113.124 55.0376 113.221 55.116 113.305 55.2062C113.817 55.488 114.221 55.9017 114.469 56.4448C114.838 57.2543 114.806 58.2265 114.452 59.2105C117.038 57.0628 119.121 55.3552 119.724 54.9423Z" fill="#FCC345"/>
<path d="M65.9889 78.787L64.2213 77.7578L61.4334 78.7989L52.1396 82.2695L55.7769 84.4563L61.1784 87.7056C64.2332 84.9628 66.8374 82.6142 67.3365 82.1077C67.8662 81.5706 65.4584 79.3233 65.9881 78.787H65.9889Z" fill="#FCC345"/>
<path d="M90.8638 53.7168L89.4805 52.8579L80.7836 47.4584C80.4511 47.2516 80.2258 46.9043 80.1723 46.5161C80.1195 46.1288 80.2437 45.7329 80.5081 45.4452L84.4931 41.1021L78.3536 37.457L59.6377 54.6311L60.6171 55.2006L60.618 55.2014L64.6625 57.5543L69.11 60.1421L70.4517 60.9227L74.7121 63.4024L75.2486 63.7131L75.7834 64.0247L76.3191 64.3371C76.9338 63.8766 78.2516 63.8272 79.9495 64L81.1313 62.8857L83.6412 60.5209L90.8638 53.7168Z" fill="#FDCA4D"/>
<path d="M101.037 50.9266L96.4309 48.1924L86.8098 42.4805L83.5254 46.06L91.8805 51.2475L93.7102 52.3831C94.058 52.5993 94.2858 52.9645 94.3266 53.3723C94.3674 53.78 94.2169 54.1835 93.9194 54.4644L89.2525 58.8612L88.1302 59.9184L92.667 62.6399L98.1509 65.9291C99.2953 65.0949 101.505 63.3269 103.979 61.3273C103.987 59.4715 105.431 57.2634 107.698 55.8954C107.998 55.7144 108.3 55.5555 108.602 55.4187L105.601 53.637L101.037 50.9266Z" fill="#FDCA4D"/>
<path d="M42.9872 79.8407L37.6393 76.6238L28.7476 71.2754L15.6143 84.1285L25.9793 90.1596L26.8023 90.638L27.6313 91.1207C28.4484 90.192 32.6884 91.2594 36.8979 92.3124L39.3474 89.9162L47.1091 82.3196L42.9872 79.8407Z" fill="#FDCA4D"/>
<path d="M86.1361 61.7949L84.9755 62.8888L83.2666 64.4985C86.8095 65.1438 90.9348 66.1321 93.942 66.4777L88.0253 62.9279L86.1361 61.7949Z" fill="#FDCA4D"/>
<path d="M30.6943 69.373L39.5613 74.7053L44.9687 77.9579L49.2513 80.5338L52.3401 79.3812L61.0464 76.1303C61.0748 76.0741 61.1113 76.023 61.1561 75.9771L56.3243 73.1654L53.7983 71.6952L49.0838 68.9525L46.6598 67.542L43.4332 65.665L39.2595 63.2363L35.5483 64.6222L30.6943 69.373Z" fill="#FDCA4D"/>
<path d="M104.625 46.1565L100.943 44.0147L99.8834 43.3984L97.2605 41.8721L95.4367 40.8106L84.5156 34.456L80.0953 31.8844H80.0945L76.5108 29.7988L75.6742 29.3119L71.253 26.7402L69.5576 28.2291L67.8623 29.7171L65.6364 31.6716L64.4708 32.6948L61.1277 35.6299L59.3847 37.1604L47.5156 47.5815L49.699 48.8516H49.6998L51.8832 50.1225L54.0666 51.3934H54.0674L57.2524 53.2466L77.2955 34.8552C77.7232 34.462 78.3575 34.3964 78.8574 34.6927L98.8495 46.5626L103.35 49.2346L107.847 51.9042L112.343 54.5729C113.666 53.5199 114.71 52.7103 115.251 52.34L104.625 46.1565Z" fill="#FDCA4D"/>
<path d="M39.9141 93.0538C42.8329 93.7331 45.2866 94.1442 45.9234 93.4998C46.7941 92.6179 50.2876 89.4461 53.7395 86.3101L49.4442 83.7266L39.9141 93.0538Z" fill="#FDCA4D"/>
<path d="M52.1396 82.2713L55.7769 84.4582C58.348 82.1198 60.5773 80.0794 61.2396 79.4077C61.3901 79.2554 61.4402 79.0451 61.4334 78.8008L52.1396 82.2713Z" fill="#FDCA4D"/>
<path d="M89.4805 52.8579L80.7836 47.4584C80.4511 47.2516 80.2258 46.9043 80.1723 46.5161C80.1195 46.1288 80.2437 45.7329 80.5081 45.4452L84.4931 41.1021L78.3536 37.457L59.6377 54.6311L60.6171 55.2006L60.618 55.2014L64.6625 57.5543L69.11 60.1421L70.4517 60.9227L74.7121 63.4024L75.2486 63.7131L75.7834 64.0247C76.8513 63.2262 78.8264 62.9581 81.1313 62.8857L83.6412 60.5209L90.8638 53.7168L89.4805 52.8579Z" fill="#FED255"/>
<path d="M96.4308 48.1924L86.8097 42.4805L83.5244 46.06L91.8804 51.2475L93.7101 52.3831C94.0578 52.5993 94.2857 52.9645 94.3265 53.3723C94.3673 53.78 94.216 54.1835 93.9184 54.4644L89.2524 58.8612L88.1301 59.9184L92.6669 62.6399C93.5477 62.4807 94.2857 62.2398 94.8188 61.8814C96.7947 60.5467 101.618 56.7305 105.601 53.637L101.036 50.9266L96.4308 48.1924Z" fill="#FED255"/>
<path d="M37.6393 76.6238L28.7476 71.2754L15.6143 84.1285L17.8793 85.4471L21.4927 87.5488L25.9793 90.1596L26.8023 90.638C28.3659 88.8615 35.3054 90.2252 39.3474 89.9162L47.1091 82.3196L42.9872 79.8407L37.6393 76.6238Z" fill="#FED255"/>
<path d="M95.4367 40.8106L84.5156 34.456L80.0953 31.8844H80.0945L76.5099 29.7988L75.6742 29.3119L71.253 26.7402L69.5576 28.2291L67.8623 29.7171L65.6364 31.6716L64.4708 32.6948L61.1277 35.6299L59.3847 37.1604L47.5156 47.5815L49.699 48.8516H49.6998L51.8832 50.1225L54.0666 51.3934H54.0674L57.2524 53.2466L77.2955 34.8552C77.7232 34.462 78.3574 34.3964 78.8574 34.6927L98.8495 46.5626L103.35 49.2346L107.847 51.9042C109.066 50.9738 110.094 50.2059 110.778 49.7377L95.4367 40.8106Z" fill="#FED255"/>
<path d="M84.9756 62.8888C86.001 62.9058 87.0306 62.9262 88.0253 62.9279L86.1361 61.7949L84.9756 62.8888Z" fill="#FED255"/>
<path d="M49.0838 68.9525L46.6598 67.542L43.4332 65.665L39.2595 63.2363L35.5483 64.6222L30.6943 69.373L39.5613 74.7053L44.9687 77.9579L49.2513 80.5338L52.3401 79.3812C53.5781 78.2252 54.5924 77.2642 55.1425 76.7057C56.0259 75.8102 55.4409 74.06 56.3243 73.1654L53.7983 71.6952L49.0838 68.9525Z" fill="#FED255"/>
<path d="M101.832 44.5323L86.5425 35.6358L80.0945 31.8844L76.5099 29.7988L75.6741 29.3119L71.253 26.7402L69.5576 28.2291L67.8623 29.7171L65.6364 31.6716L64.4708 32.6948L61.1277 35.6299L59.3847 37.1604L47.5156 47.5815L49.699 48.8516H49.6998L51.8832 50.1225L54.0666 51.3934H54.0674L57.2524 53.2466L77.2955 34.8552C77.7232 34.462 78.3574 34.3964 78.8574 34.6927L98.8495 46.5626L103.35 49.2346C104.459 48.4285 105.472 47.7058 106.305 47.1346L101.832 44.5323Z" fill="#FFD95C"/>
<path d="M89.4805 52.8579L80.7836 47.4584C80.4511 47.2516 80.2258 46.9043 80.1723 46.5161C80.1195 46.1288 80.2437 45.7329 80.5081 45.4452L84.4931 41.1021L78.3536 37.457L59.6377 54.6311L60.6171 55.2006L60.618 55.2014L64.6625 57.5543L69.11 60.1421L70.4517 60.9227L74.7121 63.4024L75.2486 63.7131C77.2807 62.1936 80.4588 61.35 83.6412 60.5209L90.8638 53.7168L89.4805 52.8579Z" fill="#FFD95C"/>
<path d="M86.8098 42.4805L83.5254 46.06L91.8805 51.2475L93.7102 52.3831C94.058 52.5993 94.2858 52.9645 94.3266 53.3723C94.3674 53.78 94.2169 54.1835 93.9194 54.4644L89.2525 58.8612C90.243 58.4815 91.1434 58.0508 91.9009 57.5392C94.1761 56.0035 97.7666 53.3314 101.037 50.9266L96.4309 48.1924L86.8098 42.4805Z" fill="#FFD95C"/>
<path d="M46.6598 67.542L43.4332 65.665L39.2595 63.2363L35.5483 64.6222L30.6943 69.373L39.5613 74.7053L44.9687 77.9579C46.579 76.4248 48.0686 74.9939 49.0455 74.0039C50.1058 72.9296 50.4314 71.428 51.4925 70.3537L46.6598 67.542Z" fill="#FFD95C"/>
<path d="M28.7476 71.2754L15.6143 84.1285L17.8793 85.4471L21.4927 87.5488L25.9742 90.1562C28.394 87.4058 35.3624 87.3258 37.9386 84.7184C39.1229 83.5207 41.0274 81.7033 42.9872 79.8407L37.6393 76.6238L28.7476 71.2754Z" fill="#FFD95C"/>
<path d="M54.733 62.4405C56.3288 62.0268 57.8159 62.1996 58.7936 62.8023L63.157 60.4205C63.5506 60.2051 64.0276 60.206 64.4212 60.4222L67.0391 61.8617C67.7958 61.3271 68.553 60.7933 69.3109 60.2605L61.3536 55.6305L59.6379 54.6328L57.9995 56.1353C57.8771 56.2485 57.7257 56.3413 57.5702 56.3992L39.2598 63.2356L43.4335 65.6642L46.6601 67.5412L53.467 71.5021C57.0634 68.9194 60.6973 66.4023 64.241 63.8545C64.3782 63.7557 64.5156 63.6572 64.6534 63.5591L63.7853 63.0815L59.9278 65.1867C59.666 66.7683 57.9196 68.3533 55.6478 68.9424C53.024 69.6234 50.6927 68.7194 50.4402 66.9232C50.1877 65.1279 52.11 63.1215 54.733 62.4405Z" fill="#FDC26E"/>
<path d="M86.5434 35.6358L80.0945 31.8844L76.5099 29.7988L75.6742 29.3119L71.253 26.7402L69.5576 28.2291L67.8623 29.7171L65.6364 31.6716L64.4708 32.6948L61.1277 35.6299L59.3847 37.1604L47.5156 47.5815L49.699 48.8516H49.6998L51.8832 50.1225L54.0666 51.3934H54.0674L57.2524 53.2466L77.2955 34.8552C77.7232 34.462 78.3574 34.3964 78.8574 34.6927L98.8495 46.5626C99.8454 45.8884 100.84 45.2116 101.832 44.5323L86.5434 35.6358Z" fill="#FFE164"/>
<path d="M80.1723 46.5161C80.1196 46.1288 80.2437 45.7329 80.5081 45.4452L84.4931 41.1021L78.3536 37.457L59.6377 54.6311L60.6171 55.2006L60.618 55.2014L64.6625 57.5543L69.11 60.1421L70.4517 60.9227L74.7121 63.4024C79.3943 59.9029 84.1275 56.4715 88.9823 53.1933C89.1489 53.0815 89.315 52.9697 89.4805 52.8579L80.7836 47.4584C80.4511 47.2516 80.2258 46.9043 80.1723 46.5161Z" fill="#FFE164"/>
<path d="M83.5254 46.06L91.8805 51.2475C93.3965 50.2294 94.915 49.2122 96.4309 48.1924L86.8098 42.4805L83.5254 46.06Z" fill="#FFE164"/>
<path d="M39.2595 63.2363L35.5483 64.6222L30.6943 69.373L39.5613 74.7053C40.6981 73.5706 41.8289 72.4367 42.9486 71.302C44.1854 70.0484 45.4225 68.795 46.6598 67.542L43.4332 65.665L39.2595 63.2363Z" fill="#FFE164"/>
<path d="M15.6143 84.1285L25.1461 89.6744C27.9697 86.466 30.9412 83.3717 33.9476 80.3285C35.1745 79.0865 36.4081 77.853 37.6393 76.6238L28.7476 71.2754L15.6143 84.1285Z" fill="#FFE164"/>
<path d="M28.6691 62.4965C28.4293 60.7931 26.8658 59.6558 24.7419 59.3809L24.7088 59.6975L24.6756 60.0176L24.6407 60.3428L24.6059 60.6748L24.571 61.0161L24.5336 61.3736L24.4928 61.7567L24.1434 65.097L24.0881 65.6223L24.0379 66.0956L23.646 65.8674L23.2183 65.6188L20.0155 63.7555L19.8837 62.7067L19.8302 62.2836L19.7826 61.9048L19.7384 61.5507L19.6959 61.2111L19.6542 60.8816L19.6142 60.5598L19.5743 60.2423C16.7736 61.5133 14.9082 63.8568 15.2084 65.9883C15.5663 68.5327 18.8694 69.8138 22.5866 68.8485C26.3029 67.8849 29.027 65.0417 28.6691 62.4965Z" fill="white"/>
<path d="M28.1951 62.553C27.9791 61.0173 26.5983 59.9796 24.7083 59.6953L24.6751 60.0154L24.6403 60.3406L24.6054 60.6726L24.5706 61.0139L24.5332 61.3714L24.4923 61.7545L24.1429 65.0948L24.0876 65.62L24.0375 66.0933L23.6455 65.8652L23.2179 65.6166L20.0151 63.7532L19.8833 62.7045L19.8297 62.2814L19.7821 61.9026L19.7379 61.5485L19.6954 61.2088L19.6537 60.8794L19.6138 60.5576C17.1294 61.7485 15.4944 63.8562 15.7657 65.7775C16.0955 68.127 19.1461 69.3094 22.5785 68.4181C26.01 67.5286 28.525 64.9024 28.1951 62.553Z" fill="#FCE9E1"/>
<path d="M27.7216 62.612C27.5286 61.2448 26.3306 60.3085 24.6752 60.0156L24.6403 60.3408L24.6055 60.6728L24.5706 61.0141L24.5332 61.3717L24.4924 61.7547L24.143 65.0951L24.0877 65.6203L24.0375 66.0936L23.6456 65.8654L23.2179 65.6169L20.0151 63.7535L19.8834 62.7047L19.8298 62.2817L19.7822 61.9029L19.738 61.5487L19.6955 61.2091L19.6538 60.8797C17.4883 61.9871 16.082 63.8582 16.3226 65.5692C16.6262 67.7237 19.4234 68.8074 22.5709 67.991C25.7176 67.1747 28.0234 64.7665 27.7216 62.612Z" fill="#FBD5C8"/>
<path d="M27.2475 62.6717C27.0792 61.474 26.0615 60.6397 24.6407 60.3418L24.6059 60.6738L24.571 61.0151L24.5336 61.3727L24.4928 61.7557L24.1434 65.0961L24.0881 65.6213L24.0379 66.0946L23.646 65.8664L23.2183 65.6179L20.0155 63.7545L19.8838 62.7057L19.8302 62.2827L19.7826 61.9038L19.7384 61.5497L19.6959 61.2101C17.8483 62.2273 16.6699 63.8626 16.8808 65.3608C17.1562 67.3204 19.701 68.307 22.5637 67.5639C25.4255 66.8216 27.523 64.6313 27.2475 62.6717Z" fill="#FAC3B2"/>
<path d="M26.7734 62.7305C26.6289 61.7021 25.7906 60.9726 24.6054 60.6738L24.5705 61.0152L24.5331 61.3727L24.4923 61.7558L24.1428 65.0961L24.0876 65.6213L24.0374 66.0946L23.6455 65.8665L23.2178 65.6179L20.015 63.7545L19.8832 62.7058L19.8297 62.2827L19.7821 61.9039L19.7378 61.5498C18.21 62.4717 17.2569 63.8669 17.438 65.1523C17.6854 66.9169 19.9768 67.8048 22.5546 67.1349C25.1325 66.4666 27.0209 64.4943 26.7734 62.7305Z" fill="#F8B09D"/>
<path d="M26.299 62.7895C26.1791 61.934 25.5185 61.31 24.5705 61.0155L24.5331 61.373L24.4923 61.7561L24.1429 65.0964L24.0876 65.6216L24.0374 66.0949L23.6455 65.8668L23.2178 65.6182L20.015 63.7548L19.8832 62.7061L19.8297 62.283L19.7821 61.9042C18.5765 62.7206 17.8453 63.8749 17.9949 64.9432C18.216 66.5129 20.2539 67.3029 22.547 66.7087C24.84 66.1128 26.5201 64.3592 26.299 62.7895Z" fill="#F69E89"/>
<path d="M25.8257 62.8463C25.7305 62.1653 25.2433 61.652 24.5334 61.3711L24.4926 61.7542L24.1432 65.0945L24.0879 65.6197C25.2467 64.9013 25.9643 63.8321 25.8257 62.8463Z" fill="#F58D78"/>
<path d="M20.0155 63.755L19.8838 62.7063L19.8302 62.2832C18.9477 62.9778 18.4341 63.887 18.5532 64.7348C18.7462 66.1096 20.5316 66.8017 22.5399 66.2798C22.9318 66.1777 23.3033 66.0381 23.646 65.867L23.2183 65.6184L20.0155 63.755Z" fill="#F58D78"/>
<path d="M19.1106 64.5262C19.2764 65.706 20.8076 66.3002 22.5319 65.8524C22.7705 65.7906 22.9992 65.7128 23.218 65.6192L20.0152 63.7558L19.8834 62.707C19.3274 63.2552 19.023 63.9099 19.1106 64.5262Z" fill="#F37C68"/>
<path d="M25.3526 62.904C25.282 62.4043 24.9657 62.0093 24.493 61.7539L24.1436 65.0942C24.9691 64.4881 25.4597 63.6675 25.3526 62.904Z" fill="#F37C68"/>
<path d="M19.3049 58.0954L19.5744 60.2397L19.6144 60.5572L19.6543 60.879L19.696 61.2085L19.7385 61.5481L19.7827 61.9022L19.8303 62.281L19.8839 62.7041L20.0157 63.7529L23.2185 65.6162L23.6461 65.8648L24.0381 66.093L20.3447 36.7051C19.0184 37.0481 17.7736 37.1171 16.6445 36.9298L19.3049 58.0954Z" fill="#861E32"/>
<path d="M20.0232 25.6945C19.116 26.218 18.2488 26.5219 17.4521 26.6223C17.8084 27.4838 18.3542 28.1282 19.0421 28.5266C19.0591 28.5368 19.0764 28.5467 19.0939 28.5564C19.0968 28.5581 19.0996 28.5598 19.1024 28.5615C19.12 28.5711 19.1379 28.5808 19.156 28.5904C19.1583 28.5916 19.1605 28.5927 19.1628 28.5938C19.1815 28.6041 19.2002 28.6137 19.2189 28.6228C19.2206 28.6234 19.2223 28.6242 19.224 28.6253C19.2422 28.6344 19.2606 28.6435 19.2793 28.6526C19.2821 28.6537 19.2849 28.6551 19.2878 28.6568C19.3059 28.6648 19.3241 28.673 19.3422 28.6815C19.345 28.6827 19.3479 28.6841 19.3507 28.6858C19.3694 28.6943 19.3884 28.7025 19.4077 28.7105C19.4094 28.7116 19.4113 28.7125 19.4136 28.713C19.4323 28.721 19.451 28.7286 19.4697 28.736C19.4731 28.7377 19.4762 28.7391 19.4791 28.7403C19.4978 28.7476 19.5162 28.7547 19.5343 28.7615C19.5377 28.7632 19.5411 28.7647 19.5445 28.7658C19.5632 28.7726 19.5817 28.7794 19.5998 28.7862C19.6032 28.7874 19.6069 28.7885 19.6109 28.7896C19.629 28.7964 19.6471 28.803 19.6653 28.8092C19.6692 28.8104 19.6732 28.8115 19.6772 28.8126C19.697 28.8194 19.7169 28.826 19.7367 28.8322C19.739 28.8328 19.7409 28.8333 19.7426 28.8339C19.7631 28.8401 19.784 28.8464 19.8056 28.8526C19.8073 28.8532 19.8087 28.8538 19.8098 28.8543C19.8302 28.86 19.8506 28.8657 19.871 28.8714C19.8739 28.8719 19.8767 28.8725 19.8795 28.8731C19.8994 28.8787 19.9192 28.8838 19.939 28.8884C19.9425 28.8895 19.9459 28.8904 19.9493 28.8909C19.9685 28.8955 19.9878 28.9 20.0071 28.9046C20.0116 28.9057 20.0159 28.9068 20.0198 28.908C20.0397 28.9119 20.0595 28.9162 20.0793 28.9207C20.0827 28.9213 20.0859 28.9219 20.0887 28.9224C20.1097 28.927 20.1309 28.9312 20.1525 28.9352C20.1547 28.9352 20.157 28.9355 20.1593 28.9361C20.1797 28.94 20.2001 28.9437 20.2205 28.9471C20.2239 28.9477 20.2276 28.9483 20.2315 28.9488C20.2519 28.9522 20.2723 28.9553 20.2927 28.9582C20.2961 28.9588 20.2998 28.9593 20.3038 28.9599C20.3242 28.9627 20.3449 28.9656 20.3659 28.9684C20.3693 28.969 20.3727 28.9693 20.3761 28.9693C20.3959 28.9721 20.416 28.9746 20.4364 28.9769C20.441 28.9775 20.4458 28.978 20.4509 28.9786C20.4702 28.9803 20.4897 28.982 20.5096 28.9837C20.5141 28.9843 20.5189 28.9849 20.524 28.9854C20.5433 28.9871 20.5628 28.9885 20.5827 28.9897C20.5883 28.9902 20.594 28.9908 20.5997 28.9914C20.6189 28.9925 20.6385 28.9937 20.6583 28.9948C20.6634 28.9948 20.6685 28.9951 20.6736 28.9956C20.6929 28.9968 20.7122 28.9976 20.7315 28.9982C20.7377 28.9982 20.7439 28.9985 20.7502 28.999C20.7683 28.999 20.787 28.9996 20.8063 29.0007C20.8125 29.0007 20.819 29.0007 20.8258 29.0007C20.8457 29.0007 20.8655 29.0007 20.8853 29.0007C20.8887 29.0007 20.8924 29.0007 20.8964 29.0007H20.9032C20.923 29.0007 20.9429 29.0007 20.9627 29.0007C20.9678 29.0007 20.9732 29.0007 20.9789 29.0007C20.9981 28.9996 21.0177 28.9988 21.0375 28.9982C21.0443 28.9982 21.0511 28.9982 21.0579 28.9982C21.0755 28.9971 21.0934 28.9962 21.1115 28.9956C21.1194 28.9951 21.1277 28.9945 21.1362 28.9939C21.1543 28.9934 21.1724 28.9922 21.1906 28.9905C21.1985 28.99 21.2064 28.9897 21.2144 28.9897C21.232 28.988 21.2492 28.9866 21.2662 28.9854C21.2759 28.9843 21.2855 28.9834 21.2952 28.9829C21.3127 28.9812 21.3309 28.9795 21.3496 28.9778C21.3569 28.9766 21.3646 28.9758 21.3725 28.9752C21.3912 28.9729 21.4099 28.9707 21.4286 28.9684C21.4371 28.9678 21.4456 28.967 21.4541 28.9658C21.4712 28.9641 21.4884 28.9619 21.506 28.959C21.5151 28.9579 21.5247 28.9568 21.5349 28.9556C21.5519 28.9534 21.5692 28.9508 21.5868 28.948C21.5964 28.9468 21.6058 28.9454 21.6148 28.9437C21.6324 28.9409 21.6497 28.938 21.6667 28.9352C21.6769 28.9335 21.6871 28.9318 21.6973 28.9301C21.7137 28.9273 21.7302 28.9244 21.7466 28.9216C21.758 28.9193 21.769 28.9173 21.7798 28.9156C21.7968 28.9128 21.8135 28.9097 21.8299 28.9063C21.8407 28.904 21.8512 28.902 21.8614 28.9003C21.879 28.8963 21.8965 28.8924 21.9141 28.8884C21.9243 28.8867 21.9342 28.8847 21.9439 28.8824C21.9597 28.8784 21.9756 28.8748 21.9915 28.8714C22.004 28.8685 22.0164 28.8657 22.0289 28.8628C22.0436 28.8594 22.0581 28.856 22.0723 28.8526C22.0859 28.8492 22.0992 28.8461 22.1122 28.8433C22.1253 28.8399 22.1383 28.8365 22.1513 28.833C22.1666 28.8291 22.1822 28.8251 22.1981 28.8211C22.2089 28.8177 22.2196 28.8146 22.2304 28.8118C22.248 28.8072 22.265 28.8027 22.2814 28.7981C22.295 28.7942 22.3083 28.7902 22.3214 28.7862C22.3361 28.7823 22.3508 28.778 22.3656 28.7735C22.3809 28.7689 22.3965 28.7644 22.4123 28.7598C22.4248 28.7559 22.4376 28.7519 22.4506 28.7479C22.4659 28.7428 22.4815 28.738 22.4974 28.7335C22.5104 28.7289 22.5234 28.7247 22.5365 28.7207C22.5484 28.7167 22.56 28.7127 22.5713 28.7088C22.5889 28.7031 22.6068 28.6971 22.6249 28.6909C22.6328 28.6881 22.6408 28.6852 22.6487 28.6824C22.6691 28.6756 22.6895 28.6685 22.7099 28.6611C22.7213 28.6571 22.7329 28.6529 22.7448 28.6483C22.7624 28.6421 22.7799 28.6358 22.7975 28.6296C22.8049 28.6268 22.8125 28.6236 22.8205 28.6202C22.842 28.6123 22.8638 28.6043 22.8859 28.5964C22.8876 28.5953 22.8896 28.5941 22.8919 28.593C22.9185 28.5828 22.9457 28.5723 22.9735 28.5615C22.9769 28.5598 22.9803 28.5584 22.9837 28.5572C23.0092 28.547 23.0347 28.5365 23.0602 28.5257C23.0676 28.5229 23.0747 28.5198 23.0815 28.5164C23.1036 28.5073 23.1257 28.4979 23.1478 28.4883C23.154 28.4855 23.1603 28.4829 23.1665 28.4806C23.2198 28.4574 23.2728 28.4335 23.3255 28.4091C23.3306 28.4069 23.3357 28.4046 23.3408 28.4023C23.3652 28.391 23.3895 28.3796 23.4139 28.3683C23.4196 28.3654 23.425 28.3626 23.4301 28.3598C23.4845 28.3342 23.5386 28.3078 23.5925 28.2806C23.6089 28.2721 23.6253 28.2636 23.6418 28.255C23.6554 28.2482 23.669 28.2414 23.6826 28.2346C23.6951 28.2278 23.7075 28.221 23.72 28.2142C23.7398 28.204 23.7597 28.1935 23.7795 28.1827C23.8288 28.1566 23.8781 28.1296 23.9274 28.1018C23.9671 28.0797 24.0065 28.0573 24.0456 28.0346C27.9345 25.7873 31.0778 20.3358 31.0651 15.8625C31.0651 15.8159 31.0645 15.7694 31.0634 15.7229C31.0628 15.6826 31.0619 15.6423 31.0608 15.602C31.0585 15.5225 31.0549 15.4437 31.0498 15.3653C31.0498 15.3614 31.0498 15.3574 31.0498 15.3534C31.0475 15.3234 31.0455 15.2933 31.0438 15.2632C31.0432 15.2604 31.043 15.2575 31.043 15.2547C31.0413 15.2303 31.0396 15.2059 31.0379 15.1815C31.0367 15.173 31.0359 15.1644 31.0353 15.1559C31.0336 15.131 31.0313 15.106 31.0285 15.081C31.0279 15.0736 31.0274 15.0666 31.0268 15.0597C31.0251 15.0427 31.0234 15.0257 31.0217 15.0087C31.02 14.9928 31.0183 14.9769 31.0166 14.961C31.0155 14.9497 31.0143 14.9383 31.0132 14.9269C31.0109 14.9065 31.0084 14.8864 31.0055 14.8665C31.0044 14.8535 31.003 14.8404 31.0013 14.8274C30.999 14.8086 30.9965 14.7902 30.9936 14.772C30.9919 14.7578 30.99 14.7434 30.9877 14.7286C30.9854 14.7127 30.9832 14.6965 30.9809 14.6801C30.9786 14.6636 30.9764 14.6475 30.9741 14.6316C30.9718 14.6168 30.9696 14.6023 30.9673 14.5882C30.9645 14.5711 30.9616 14.5544 30.9588 14.5379C30.9565 14.5243 30.9543 14.5107 30.952 14.4971C30.9486 14.48 30.9455 14.4627 30.9426 14.4451C30.9404 14.4321 30.9381 14.4196 30.9358 14.4077C30.933 14.3912 30.9299 14.3751 30.9265 14.3592C30.9236 14.3455 30.9211 14.3316 30.9188 14.3175C30.9154 14.3038 30.9126 14.2902 30.9103 14.2766C30.9069 14.2607 30.9035 14.2451 30.9001 14.2298C30.8973 14.215 30.8939 14.2003 30.8899 14.1855C30.8871 14.1713 30.8842 14.1571 30.8814 14.1429C30.8774 14.1282 30.8738 14.1131 30.8704 14.0978C30.8675 14.0842 30.8641 14.0706 30.8602 14.057C30.8568 14.0416 30.8531 14.0263 30.8491 14.011C30.8457 13.9979 30.8426 13.9852 30.8398 13.9727C30.8352 13.9562 30.8307 13.9398 30.8261 13.9233C30.8233 13.912 30.8202 13.9006 30.8168 13.8893C30.8128 13.8734 30.8086 13.8575 30.804 13.8416C30.8006 13.8297 30.7972 13.818 30.7938 13.8067C30.7887 13.7897 30.7836 13.7729 30.7785 13.7565C30.7757 13.7463 30.7729 13.736 30.77 13.7258C30.7649 13.7099 30.7598 13.694 30.7547 13.6782C30.7513 13.6668 30.7479 13.6555 30.7445 13.6441C30.7389 13.6288 30.7335 13.6132 30.7284 13.5973C30.725 13.5865 30.7216 13.5757 30.7182 13.5649C30.7125 13.5491 30.7068 13.5334 30.7012 13.5181C30.6978 13.5073 30.6944 13.4968 30.691 13.4866C30.6853 13.4719 30.6799 13.4571 30.6748 13.4424C30.6708 13.431 30.6666 13.4199 30.6621 13.4092C30.657 13.3961 30.6521 13.3831 30.6476 13.37C30.6425 13.357 30.6374 13.3439 30.6323 13.3308C30.6278 13.3201 30.6235 13.309 30.6195 13.2976C30.6139 13.284 30.6082 13.2701 30.6025 13.2559C30.598 13.2446 30.5932 13.2332 30.5881 13.2219C30.5824 13.2088 30.5767 13.1955 30.5711 13.1819C30.566 13.17 30.5609 13.158 30.5558 13.1461C30.5501 13.1342 30.5447 13.122 30.5396 13.1095C30.534 13.0976 30.5283 13.0854 30.5226 13.0729C30.5175 13.061 30.5121 13.0494 30.5065 13.038C30.5014 13.0261 30.496 13.0147 30.4903 13.004C30.4841 12.9915 30.4781 12.9787 30.4725 12.9657C30.4668 12.9554 30.4617 12.9455 30.4572 12.9359C30.4504 12.9222 30.4435 12.9089 30.4367 12.8959C30.4316 12.8856 30.4265 12.8757 30.4214 12.8661C30.4146 12.853 30.4081 12.8402 30.4019 12.8278C30.3962 12.817 30.3905 12.8065 30.3849 12.7963C30.3781 12.7838 30.3713 12.7716 30.3645 12.7597C30.3588 12.7494 30.3529 12.7389 30.3466 12.7282C30.3404 12.7168 30.3342 12.7055 30.3279 12.6941C30.3211 12.6833 30.3143 12.672 30.3075 12.6601C30.3018 12.6504 30.2959 12.6402 30.2897 12.6294C30.2829 12.6181 30.2761 12.607 30.2693 12.5962C30.263 12.5854 30.2565 12.5749 30.2497 12.5647C30.2435 12.5545 30.2369 12.5443 30.2301 12.5341C30.2233 12.5227 30.2163 12.5117 30.2089 12.5009C30.2027 12.4907 30.1961 12.4807 30.1893 12.4711C30.1825 12.4609 30.1757 12.4506 30.1689 12.4404C30.1616 12.4302 30.1545 12.42 30.1477 12.4098C30.1403 12.399 30.1332 12.3885 30.1264 12.3783C30.1196 12.3692 30.1128 12.3596 30.106 12.3493C30.0986 12.3391 30.0913 12.3289 30.0839 12.3187C30.0765 12.3096 30.0695 12.3003 30.0626 12.2906C30.0553 12.2804 30.0479 12.2705 30.0405 12.2608C30.0326 12.2506 30.0247 12.2407 30.0167 12.231C30.0099 12.2219 30.0031 12.2131 29.9963 12.2046C29.9884 12.1944 29.9802 12.1842 29.9717 12.174C29.9649 12.1649 29.9578 12.1558 29.9504 12.1468C29.9431 12.1382 29.9357 12.1297 29.9283 12.1212C29.9204 12.111 29.9122 12.1011 29.9037 12.0914C29.8963 12.0829 29.8889 12.0741 29.8816 12.065C29.873 12.0565 29.8651 12.0477 29.8577 12.0386C29.8498 12.0296 29.8416 12.0205 29.8331 12.0114C29.8257 12.0029 29.8178 11.9944 29.8093 11.9859C29.8008 11.9762 29.7923 11.9669 29.7838 11.9578C29.7764 11.9504 29.7693 11.9427 29.7625 11.9348C29.7529 11.9251 29.7432 11.9155 29.7336 11.9058C29.7268 11.8985 29.7197 11.8914 29.7124 11.8846C29.7033 11.8749 29.6939 11.8656 29.6843 11.8565C29.6769 11.8491 29.6696 11.842 29.6622 11.8352C29.6531 11.8261 29.6438 11.817 29.6341 11.808C29.6268 11.8011 29.6191 11.794 29.6112 11.7867C29.6021 11.7782 29.593 11.7699 29.584 11.762C29.5755 11.7546 29.567 11.7469 29.5585 11.739C29.5494 11.7311 29.5403 11.7231 29.5313 11.7152C29.5233 11.7084 29.5154 11.7015 29.5075 11.6947C29.4978 11.6862 29.4879 11.678 29.4777 11.67C29.4692 11.6627 29.461 11.6556 29.453 11.6488C29.4434 11.6414 29.4341 11.6337 29.425 11.6258C29.4165 11.6195 29.408 11.613 29.3995 11.6062C29.3893 11.5983 29.3791 11.5903 29.3689 11.5824C29.3609 11.5767 29.3533 11.5707 29.3459 11.5645C29.3346 11.556 29.3232 11.5478 29.3119 11.5398C29.3051 11.5347 29.298 11.5296 29.2906 11.5245C29.2793 11.516 29.268 11.5077 29.2566 11.4998C29.2493 11.4947 29.2419 11.4896 29.2345 11.4845C29.2221 11.476 29.2099 11.4677 29.198 11.4598C29.1917 11.4552 29.1852 11.4507 29.1784 11.4462C29.1659 11.4382 29.1535 11.4303 29.141 11.4223C29.1336 11.4178 29.1268 11.4133 29.1206 11.4087C29.1076 11.4008 29.0948 11.3928 29.0823 11.3849C29.0755 11.3809 29.069 11.3769 29.0628 11.373C29.0497 11.365 29.0364 11.3571 29.0228 11.3491C28.3341 10.9448 27.5018 10.7881 26.575 10.9048C26.8743 11.6283 27.0393 12.506 27.0427 13.5215C27.0546 17.9949 23.9113 23.4463 20.0232 25.6945Z" fill="#942337"/>
<path d="M14.033 35.9153C13.9984 35.892 13.9638 35.8685 13.9293 35.8447C13.9247 35.8418 13.9205 35.839 13.9165 35.8361C13.8865 35.8146 13.8564 35.793 13.8264 35.7714C13.8207 35.7675 13.815 35.7635 13.8094 35.7595C13.7793 35.7374 13.7496 35.7153 13.7201 35.6931C13.7161 35.6897 13.7119 35.6866 13.7073 35.6838C13.6059 35.606 13.5061 35.5251 13.4081 35.4412C13.403 35.4372 13.3981 35.4329 13.3936 35.4284C13.3664 35.4051 13.3395 35.3816 13.3128 35.3577C13.3066 35.3521 13.3001 35.3464 13.2933 35.3407C13.2666 35.3169 13.2403 35.2928 13.2142 35.2684C13.2097 35.2638 13.2049 35.2596 13.1998 35.2556C13.1363 35.196 13.0736 35.135 13.0119 35.0726C12.9824 35.0425 12.9529 35.0124 12.9234 34.9823C12.9178 34.9761 12.9121 34.9701 12.9064 34.9645C12.8826 34.9395 12.8591 34.9142 12.8359 34.8887C12.8285 34.8807 12.8214 34.8728 12.8146 34.8649C12.7925 34.841 12.7704 34.8169 12.7483 34.7925C12.7409 34.7846 12.7338 34.7763 12.727 34.7678C12.7027 34.74 12.6783 34.7119 12.6539 34.6835C12.6499 34.6796 12.6465 34.6753 12.6437 34.6708C12.587 34.6044 12.5312 34.5366 12.4762 34.4673C12.47 34.4594 12.464 34.4514 12.4584 34.4435C12.438 34.4174 12.4176 34.391 12.3971 34.3643C12.3898 34.3547 12.3821 34.3447 12.3742 34.3345C12.3549 34.309 12.3359 34.2829 12.3172 34.2562C12.3099 34.2466 12.3028 34.2369 12.296 34.2273C12.275 34.1989 12.254 34.1699 12.2331 34.1404C12.2285 34.1342 12.224 34.1274 12.2195 34.12C12.1679 34.0468 12.1177 33.9725 12.069 33.897C12.0633 33.8885 12.0579 33.88 12.0528 33.8714C12.0335 33.8419 12.0148 33.8121 11.9967 33.7821C11.9899 33.7718 11.9834 33.7616 11.9771 33.7514C11.9596 33.7236 11.9423 33.6955 11.9253 33.6671C11.9185 33.6558 11.9117 33.6444 11.9049 33.6331C11.8873 33.6036 11.8697 33.5738 11.8522 33.5437C11.8471 33.5341 11.8417 33.5244 11.836 33.5148C11.7907 33.4359 11.7464 33.3559 11.7034 33.2747C11.6977 33.2634 11.6917 33.252 11.6855 33.2407C11.6702 33.2106 11.6549 33.1808 11.6396 33.1513C11.6322 33.1377 11.6251 33.124 11.6183 33.1104C11.6042 33.082 11.5903 33.0537 11.5767 33.0253C11.5699 33.0117 11.5631 32.9981 11.5563 32.9844C11.5415 32.9532 11.5268 32.922 11.5121 32.8908C11.5064 32.8794 11.501 32.8684 11.4959 32.8576C11.4562 32.7719 11.4174 32.6848 11.3794 32.5963C11.3743 32.5849 11.3695 32.5733 11.365 32.5614C11.3514 32.5296 11.3381 32.4978 11.325 32.466C11.3182 32.4501 11.3117 32.4342 11.3055 32.4183C11.2936 32.3894 11.2819 32.3602 11.2706 32.3307C11.2644 32.3148 11.2579 32.2983 11.251 32.2813C11.2391 32.2501 11.2272 32.2189 11.2153 32.1877C11.2102 32.174 11.2051 32.1604 11.2 32.1468C11.1847 32.1054 11.1697 32.0642 11.155 32.0234C11.1533 32.0183 11.1516 32.0131 11.1499 32.008C11.1334 31.9621 11.1173 31.9155 11.1014 31.8684C11.0969 31.856 11.0926 31.8432 11.0887 31.8301C11.0773 31.7961 11.066 31.7615 11.0546 31.7263C11.049 31.7098 11.0436 31.6934 11.0385 31.6769C11.0289 31.6457 11.0192 31.6145 11.0096 31.5833C11.0039 31.5657 10.9982 31.5478 10.9926 31.5296C10.9829 31.4973 10.9733 31.4647 10.9637 31.4317C10.9591 31.4159 10.9546 31.4 10.9501 31.3841C10.9387 31.3449 10.9277 31.3055 10.9169 31.2658C10.9141 31.2561 10.9112 31.2465 10.9084 31.2368C10.8948 31.188 10.8818 31.1389 10.8693 31.0895C10.8659 31.0748 10.8622 31.0603 10.8582 31.0461C10.8492 31.0098 10.8401 30.9735 10.831 30.9372C10.8265 30.919 10.8223 30.9011 10.8183 30.8835C10.8104 30.8506 10.8024 30.8177 10.7945 30.7848C10.7899 30.7655 10.7857 30.7462 10.7817 30.7269C10.7738 30.6929 10.7661 30.6588 10.7588 30.6248C10.7548 30.6072 10.7511 30.5896 10.7477 30.572C10.7398 30.534 10.7318 30.4959 10.7239 30.4579C10.7211 30.4432 10.718 30.4284 10.7146 30.4136C10.7044 30.362 10.6944 30.3098 10.6848 30.257C10.6825 30.2457 10.6805 30.2346 10.6788 30.2238C10.6709 30.1818 10.6633 30.1398 10.6559 30.0978C10.6531 30.0791 10.6499 30.0607 10.6465 30.0425C10.6409 30.0073 10.6349 29.9721 10.6287 29.9369C10.6259 29.9159 10.6227 29.8944 10.6193 29.8722C10.6137 29.8388 10.6083 29.8047 10.6032 29.7701C10.6003 29.7502 10.5975 29.7301 10.5947 29.7097C10.589 29.6711 10.5836 29.6325 10.5785 29.5939C10.5763 29.5769 10.5737 29.5598 10.5709 29.5428C10.5641 29.4889 10.5573 29.4347 10.5505 29.3802C10.5488 29.3655 10.5471 29.3507 10.5454 29.336C10.5403 29.2945 10.5354 29.2525 10.5309 29.21C10.5292 29.1907 10.5272 29.1711 10.525 29.1512C10.521 29.1143 10.517 29.0772 10.5131 29.0397C10.5114 29.017 10.5094 28.9943 10.5071 28.9716C10.5037 28.937 10.5006 28.9021 10.4978 28.8669C10.4961 28.8436 10.4941 28.8204 10.4918 28.7971C10.4884 28.758 10.4856 28.7188 10.4833 28.6796C10.4816 28.6615 10.4802 28.6436 10.479 28.626C10.4745 28.5676 10.4705 28.5094 10.4671 28.4515C10.4666 28.4419 10.4663 28.4322 10.4663 28.4226C10.4629 28.3732 10.4601 28.3235 10.4578 28.2736C10.4572 28.2526 10.4561 28.2316 10.4544 28.2106C10.4533 28.1714 10.4518 28.1323 10.4501 28.0931C10.449 28.071 10.4482 28.0489 10.4476 28.0267C10.4465 27.9876 10.4453 27.9481 10.4442 27.9084C10.4436 27.8863 10.4431 27.8641 10.4425 27.842C10.4414 27.7994 10.4405 27.7569 10.4399 27.7143C10.4399 27.6962 10.4397 27.6783 10.4391 27.6607C10.438 27.5988 10.4374 27.537 10.4374 27.4751C10.4127 18.9149 16.4238 8.49128 23.8632 4.19074C23.98 4.1232 24.0965 4.05766 24.2127 3.9941C24.2314 3.98331 24.2507 3.97281 24.2705 3.9626C24.309 3.9416 24.3476 3.92089 24.3861 3.90046C24.4116 3.88684 24.4369 3.87322 24.4618 3.8596C24.4941 3.84257 24.5261 3.82583 24.5579 3.80937C24.5947 3.79064 24.6316 3.77163 24.6684 3.75234C24.6888 3.74212 24.7095 3.73191 24.7305 3.72169C24.7736 3.69956 24.8166 3.67799 24.8597 3.657C24.8733 3.65019 24.8872 3.64338 24.9014 3.63657C24.9371 3.61898 24.9731 3.60138 25.0093 3.58379C25.0309 3.57358 25.0521 3.56336 25.0731 3.55314C25.1105 3.53555 25.1479 3.51796 25.1853 3.50037C25.2041 3.49129 25.2233 3.48249 25.2432 3.47398C25.2772 3.45809 25.3112 3.44248 25.3452 3.42716C25.3684 3.41694 25.3917 3.40644 25.4149 3.39566C25.4449 3.38261 25.475 3.36927 25.505 3.35565C25.5311 3.3443 25.5572 3.33295 25.5833 3.3216C25.619 3.30628 25.6547 3.29124 25.6904 3.27649C25.7108 3.26797 25.7309 3.25946 25.7507 3.25095C25.7842 3.23676 25.8176 3.22286 25.8511 3.20924C25.8743 3.20016 25.8975 3.19079 25.9208 3.18115C25.9508 3.16923 25.9812 3.15731 26.0118 3.14539C26.0367 3.13518 26.0619 3.12525 26.0874 3.1156C26.1186 3.10368 26.1495 3.09205 26.1801 3.0807C26.2045 3.07105 26.2291 3.06169 26.2541 3.05261C26.2853 3.04069 26.3164 3.02934 26.3476 3.01856C26.372 3.00948 26.3961 3.00068 26.4199 2.99217C26.4505 2.98138 26.4811 2.9706 26.5117 2.95982C26.5361 2.95131 26.5607 2.9428 26.5857 2.93428C26.6197 2.92293 26.6534 2.91158 26.6868 2.90023C26.7072 2.89342 26.7279 2.88661 26.7489 2.8798C26.7835 2.86845 26.8178 2.85739 26.8518 2.8466C26.8722 2.83979 26.8926 2.83327 26.913 2.82702C26.9459 2.81681 26.979 2.80688 27.0125 2.79723C27.0334 2.79042 27.0547 2.78389 27.0762 2.77765C27.1108 2.76744 27.1454 2.75751 27.18 2.74786C27.1987 2.74218 27.2179 2.73651 27.2378 2.73083C27.2695 2.72175 27.3018 2.71296 27.3347 2.70444C27.3568 2.6982 27.3789 2.69224 27.401 2.68657C27.4328 2.67805 27.4639 2.66983 27.4945 2.66188C27.5167 2.65621 27.5385 2.65053 27.56 2.64486C27.5923 2.63748 27.6244 2.62982 27.6561 2.62187C27.6776 2.6162 27.6995 2.61109 27.7216 2.60655C27.7516 2.59917 27.7819 2.59208 27.8125 2.58527C27.8346 2.58016 27.857 2.57505 27.8797 2.56995C27.9109 2.56314 27.942 2.55661 27.9732 2.55037C27.9953 2.54583 28.0172 2.54129 28.0387 2.53675C28.0687 2.5305 28.0985 2.52454 28.128 2.51887C28.1506 2.51433 28.1733 2.51007 28.196 2.5061C28.2243 2.50043 28.2527 2.49532 28.281 2.49078C28.3054 2.48624 28.3298 2.4817 28.3541 2.47716C28.3813 2.47262 28.4088 2.46808 28.4366 2.46354C28.461 2.46013 28.4851 2.45644 28.5089 2.45247C28.5389 2.44793 28.5687 2.44339 28.5981 2.43885C28.6191 2.43601 28.6406 2.43289 28.6628 2.42949C28.6928 2.42552 28.7231 2.42154 28.7537 2.41757C28.7747 2.41473 28.7957 2.41189 28.8166 2.40906C28.845 2.40565 28.8733 2.40253 28.9017 2.39969C28.9249 2.39686 28.9481 2.3943 28.9714 2.39203C28.9986 2.3892 29.0258 2.38636 29.053 2.38352C29.0768 2.38125 29.1001 2.37898 29.1227 2.37671C29.1499 2.37444 29.1769 2.37217 29.2035 2.3699C29.2273 2.3682 29.2514 2.3665 29.2758 2.36479C29.3013 2.36252 29.3265 2.36054 29.3514 2.35883C29.3764 2.3577 29.4013 2.35628 29.4263 2.35458C29.4506 2.35344 29.4753 2.35231 29.5002 2.35117C29.5257 2.34947 29.5507 2.34833 29.575 2.34777C29.6 2.34663 29.6246 2.34578 29.649 2.34521C29.674 2.34465 29.6989 2.34408 29.7238 2.34351C29.7488 2.34238 29.7737 2.34181 29.7987 2.34181C29.8225 2.34181 29.8463 2.34153 29.8701 2.34096C29.8956 2.34096 29.9211 2.34124 29.9466 2.34181C29.9698 2.34181 29.9928 2.34181 30.0155 2.34181C30.0415 2.34238 30.0676 2.34294 30.0937 2.34351C30.1164 2.34408 30.139 2.34465 30.1617 2.34521C30.1872 2.34578 30.213 2.34663 30.2391 2.34777C30.2606 2.3489 30.2824 2.35004 30.3045 2.35117C30.3306 2.35231 30.3564 2.35373 30.3819 2.35543C30.4046 2.35657 30.427 2.3577 30.4491 2.35883C30.4729 2.36054 30.4961 2.36252 30.5188 2.36479C30.5437 2.3665 30.5687 2.3682 30.5936 2.3699C30.6163 2.37217 30.639 2.37444 30.6616 2.37671C30.6854 2.37898 30.709 2.38125 30.7322 2.38352C30.756 2.38579 30.7798 2.38834 30.8036 2.39118C30.8269 2.39402 30.8501 2.39686 30.8733 2.39969C30.8966 2.40253 30.9198 2.40565 30.9431 2.40906C30.9657 2.41189 30.9884 2.41473 31.0111 2.41757C31.0343 2.42098 31.057 2.42438 31.0791 2.42779C31.1035 2.43176 31.1276 2.43545 31.1514 2.43885C31.1729 2.44282 31.1942 2.44651 31.2151 2.44992C31.2389 2.45389 31.2627 2.45815 31.2865 2.46269C31.3086 2.46666 31.3308 2.47063 31.3529 2.47461C31.3761 2.47915 31.3996 2.48397 31.4234 2.48908C31.4444 2.49305 31.4654 2.4973 31.4863 2.50184C31.5102 2.50695 31.534 2.51206 31.5578 2.51717C31.5782 2.52171 31.5983 2.52625 31.6181 2.53079C31.6431 2.53703 31.6677 2.54299 31.6921 2.54866C31.7114 2.5532 31.7304 2.55774 31.7491 2.56228C31.774 2.56909 31.7989 2.57562 31.8239 2.58186C31.8432 2.58697 31.8627 2.59236 31.8825 2.59804C31.9064 2.60485 31.9302 2.61137 31.954 2.61762C31.9732 2.62329 31.9922 2.62897 32.0109 2.63464C32.0359 2.64202 32.0605 2.6494 32.0849 2.65677C32.103 2.66245 32.1215 2.66812 32.1402 2.6738C32.1645 2.68174 32.1889 2.68969 32.2133 2.69763C32.2303 2.70331 32.2476 2.70898 32.2651 2.71466C32.2912 2.72374 32.317 2.73282 32.3425 2.7419C32.3595 2.74757 32.376 2.75353 32.3918 2.75978C32.4168 2.76829 32.4414 2.77709 32.4658 2.78616C32.4839 2.79298 32.5015 2.79978 32.5185 2.80659C32.5435 2.81624 32.5681 2.82589 32.5925 2.83554C32.6084 2.84235 32.6242 2.84859 32.6401 2.85426C32.6656 2.86448 32.6908 2.87498 32.7158 2.88576C32.7316 2.89257 32.7475 2.89938 32.7634 2.90619C32.7889 2.91697 32.8144 2.92832 32.8399 2.94024C32.8541 2.94705 32.8685 2.95358 32.8833 2.95982C32.9088 2.97117 32.9343 2.9828 32.9598 2.99472C32.974 3.0021 32.9884 3.00919 33.0031 3.016C33.0292 3.02849 33.0553 3.04126 33.0814 3.05431C33.0938 3.06055 33.1066 3.0668 33.1196 3.07304C33.1463 3.08723 33.1729 3.10084 33.1995 3.1139C33.2126 3.12127 33.2256 3.12837 33.2387 3.13518C33.2642 3.1488 33.29 3.1627 33.316 3.17689C33.3291 3.18427 33.3418 3.19136 33.3543 3.19817C33.3804 3.21293 33.4064 3.22797 33.4325 3.24329C33.4376 3.24613 33.4424 3.24868 33.447 3.25095C32.1064 2.4712 30.7656 1.69088 29.4246 0.909999C28.3924 0.309864 27.1927 -0.00169557 25.8698 6.94007e-06H25.863C24.0486 0.00511447 22.0038 0.600143 19.8408 1.84978C12.4005 6.15118 6.39033 16.5739 6.41413 25.1342C6.42604 29.3853 7.92583 32.3758 10.3439 33.7829C11.6719 34.5553 12.9997 35.3277 14.3272 36.1C14.2274 36.041 14.1293 35.9794 14.033 35.9153Z" fill="#942337"/>
<path d="M26.3409 36.3503C25.8631 41.1037 24.2749 58.9418 23.9161 59.0899C23.4756 59.2721 21.822 42.6871 21.1698 37.3455C20.59 32.604 26.8459 31.3313 26.3409 36.3503Z" fill="#EF4B53"/>
<path d="M26.0094 36.727C25.5919 41.0973 24.2069 57.4933 23.8949 57.6295C23.5098 57.7972 22.0669 42.5521 21.499 37.6429C20.9931 33.2836 26.4498 32.114 26.0094 36.727Z" fill="#F05858"/>
<path d="M25.6787 37.1002C25.3224 41.0858 24.1406 56.0415 23.8736 56.1649C23.5455 56.3182 22.3135 42.4138 21.828 37.9353C21.3969 33.9599 26.0553 32.8925 25.6787 37.1002Z" fill="#F1655D"/>
<path d="M25.3482 37.4737C25.0531 41.0753 24.0737 54.589 23.8526 54.7014C23.5806 54.8393 22.5603 42.2747 22.1581 38.2279C21.801 34.6356 25.6602 33.672 25.3482 37.4737Z" fill="#F27162"/>
<path d="M25.0175 37.8489C24.7837 41.0667 24.0066 53.1383 23.8315 53.2388C23.6155 53.3631 22.8061 42.1376 22.4873 38.5231C22.2041 35.3139 25.2649 34.4524 25.0175 37.8489Z" fill="#F37C68"/>
<path d="M24.6873 38.2247C24.5147 41.0577 23.9399 51.689 23.8107 51.7767C23.6508 51.8865 23.054 42.0017 22.8185 38.818C22.6085 35.9918 24.8701 35.2334 24.6873 38.2247Z" fill="#F4866E"/>
<path d="M24.3557 38.5982C24.2434 41.0473 23.8727 50.2366 23.7886 50.3132C23.6857 50.4077 23.2988 41.8628 23.1466 39.1107C23.0106 36.6676 24.4738 36.0121 24.3557 38.5982Z" fill="#F59073"/>
<path d="M16.2177 24.6438C16.2177 28.4881 24.7752 36.5648 16.6385 36.0983C15.4338 36.0294 11.5228 34.7738 11.0492 28.8678C10.5544 22.7004 12.8755 16.7816 14.6014 17.5358C17.7022 18.8902 16.2177 20.7987 16.2177 24.6438Z" fill="#EF4B53"/>
<path d="M15.9125 24.7741C15.9125 28.3877 23.5322 35.9775 16.2866 35.5391C15.2137 35.4744 11.732 34.2946 11.3103 28.7444C10.8699 22.9473 12.9359 17.3861 14.4731 18.0943C17.2338 19.367 15.9125 21.1606 15.9125 24.7741Z" fill="#F05858"/>
<path d="M15.6072 24.9014C15.6072 28.2834 22.2891 35.3871 15.9354 34.9768C14.9942 34.9164 11.9402 33.8115 11.5704 28.6171C11.1844 23.1921 12.997 17.9866 14.3446 18.6489C16.7661 19.8407 15.6072 21.5194 15.6072 24.9014Z" fill="#F1655D"/>
<path d="M15.3012 25.032C15.3012 28.1825 21.0462 34.8001 15.5835 34.4179C14.7749 34.3617 12.1495 33.3326 11.8315 28.4932C11.4999 23.4393 13.0575 18.5897 14.2163 19.2077C16.2977 20.3177 15.3012 21.8823 15.3012 25.032Z" fill="#F27162"/>
<path d="M14.9959 25.1623C14.9959 28.0821 19.8031 34.2128 15.2323 33.8587C14.5555 33.8068 12.3585 32.8534 12.0916 28.3698C11.8144 23.687 13.1186 19.1941 14.0879 19.7662C15.83 20.7945 14.9959 22.2433 14.9959 25.1623Z" fill="#F37C68"/>
<path d="M14.6895 25.2897C14.6895 27.9779 18.5597 33.6234 14.8799 33.2966C14.3358 33.2489 12.5665 32.3712 12.3531 28.2427C12.1286 23.9311 13.1786 19.794 13.9591 20.3209C15.3611 21.2683 14.6895 22.6022 14.6895 25.2897Z" fill="#F4866E"/>
<path d="M14.385 25.4209C14.385 27.8768 17.3165 33.0363 14.5286 32.7383C14.1163 32.6941 12.7763 31.8913 12.6139 28.1186C12.4448 24.179 13.2397 20.3977 13.8315 20.8795C14.8934 21.7452 14.385 22.9642 14.385 25.4209Z" fill="#F59073"/>
<path d="M31.8486 12.4214C32.8579 15.0279 28.4732 25.1204 33.2626 22.9208C35.4706 21.9069 37.2824 14.3189 36.7196 10.0132C35.9169 3.87651 31.506 2.6524 30.4849 3.45684C26.1224 6.89336 30.8386 9.81571 31.8486 12.4214Z" fill="#EF4B53"/>
<path d="M32.273 11.8538C33.221 14.3029 29.117 24.1493 33.3621 22.1532C35.2343 21.2721 37.0682 13.8219 36.4595 9.79718C35.6186 4.23083 31.796 3.07057 30.9033 3.81627C27.2422 6.87568 31.3241 9.40476 32.273 11.8538Z" fill="#F05858"/>
<path d="M32.6968 11.2834C33.5845 13.5759 29.761 23.1772 33.4612 21.3827C34.9992 20.637 36.8561 13.323 36.2006 9.57922C35.3257 4.58406 32.0872 3.48509 31.322 4.1746C28.3573 6.84584 31.8092 8.991 32.6968 11.2834Z" fill="#F1655D"/>
<path d="M33.121 10.7132C33.9483 12.8482 30.4054 22.2086 33.5614 20.6125C34.7636 20.0038 36.6469 12.8235 35.9403 9.36059C35.0374 4.93577 32.3771 3.89639 31.7394 4.53227C29.465 6.80257 32.2937 8.57744 33.121 10.7132Z" fill="#F27162"/>
<path d="M33.5451 10.1414C34.3111 12.1197 31.0505 21.2426 33.6599 19.8406C34.5305 19.3732 36.4435 12.3215 35.68 9.14116C34.7558 5.28583 32.6651 4.30263 32.1575 4.88915C30.5582 6.73807 32.779 8.16307 33.5451 10.1414Z" fill="#F37C68"/>
<path d="M33.97 9.57234C34.6749 11.3932 31.7025 20.2922 33.76 19.0706C34.2999 18.7506 36.2469 11.8205 35.4205 8.92283C34.4827 5.63529 32.9464 4.70231 32.5765 5.24711C31.6251 6.64658 33.2644 7.7498 33.97 9.57234Z" fill="#F4866E"/>
<path d="M34.3935 9.00366C35.038 10.6679 32.3929 19.4009 33.8587 18.3019C34.0764 18.1393 36.0608 11.3157 35.1604 8.70572C34.2192 5.98086 33.1947 5.09045 32.9932 5.60631C32.6319 6.53502 33.7482 7.33861 34.3935 9.00366Z" fill="#F59073"/>
<path d="M58.3084 64.5464C58.1341 63.3078 56.5246 62.683 54.7136 63.152C52.9018 63.6228 51.5755 65.0078 51.7498 66.2472C51.9249 67.4875 53.5335 68.1114 55.3454 67.6407C57.1563 67.1717 58.4827 65.7858 58.3084 64.5464Z" fill="#E16C44"/>
<path d="M57.9874 64.4675C57.8301 63.3507 56.3787 62.788 54.7455 63.2111C53.1113 63.635 51.9142 64.8847 52.0715 66.0024C52.2296 67.1209 53.681 67.6836 55.3143 67.2597C56.9484 66.8357 58.1446 65.5861 57.9874 64.4675Z" fill="#E47346"/>
<path d="M57.6652 64.3921C57.5258 63.397 56.2309 62.8948 54.7753 63.2719C53.3189 63.6507 52.2527 64.7633 52.3921 65.7601C52.5324 66.7569 53.8265 67.2583 55.2829 66.8812C56.7385 66.5032 57.8055 65.389 57.6652 64.3921Z" fill="#E77947"/>
<path d="M57.3445 64.3149C57.222 63.4406 56.0853 62.9997 54.8074 63.3308C53.5278 63.6637 52.5917 64.6418 52.715 65.516C52.8374 66.3911 53.9742 66.832 55.2529 66.5C56.5308 66.1689 57.4669 65.19 57.3445 64.3149Z" fill="#EA8049"/>
<path d="M57.0225 64.2413C56.917 63.4879 55.9376 63.1082 54.8374 63.3934C53.7363 63.6794 52.9295 64.5213 53.0358 65.2747C53.1412 66.0281 54.1198 66.4077 55.2208 66.1225C56.3219 65.8365 57.1279 64.9946 57.0225 64.2404V64.2413Z" fill="#ED874B"/>
<path d="M56.7015 64.1637C56.6122 63.532 55.7917 63.2137 54.8692 63.4529C53.9442 63.6929 53.2683 64.3995 53.3575 65.0311C53.4459 65.6636 54.2664 65.9811 55.1906 65.7419C56.1139 65.5027 56.7907 64.7961 56.7015 64.1637Z" fill="#F18D4D"/>
<path d="M56.3804 64.0853C56.3082 63.5754 55.6458 63.3183 54.9002 63.5116C54.1537 63.7048 53.607 64.2751 53.6793 64.7859C53.7507 65.2966 54.4139 65.5537 55.1595 65.3605C55.906 65.1673 56.4518 64.5961 56.3804 64.0853Z" fill="#F4944E"/>
<path d="M56.0576 64.0096C56.004 63.6206 55.4981 63.4248 54.9302 63.5729C54.3614 63.7202 53.9448 64.1543 54 64.5442C54.0545 64.9332 54.5595 65.129 55.1283 64.9817C55.6962 64.8336 56.1128 64.3986 56.0576 64.0096Z" fill="#F79B50"/>
<path d="M10.7225 20.8702C9.01444 26.268 10.0381 30.6418 8.83165 30.6358C7.62433 30.6298 6.33369 27.1354 7.17626 21.5282C8.10556 15.3456 13.6346 7.05264 14.8419 7.0586C16.0492 7.06456 12.5641 15.0493 10.7225 20.8702Z" fill="#972337"/>
<path d="M10.476 20.7131C8.92014 25.6384 9.79162 29.641 8.72374 29.63C7.65501 29.6189 6.54207 26.4182 7.33278 21.297C8.20511 15.6498 13.1653 8.09747 14.2332 8.10939C15.3011 8.12046 12.1527 15.4021 10.476 20.7131Z" fill="#992338"/>
<path d="M10.2294 20.5579C8.82658 25.0108 9.54417 28.6431 8.61488 28.6261C7.68558 28.6091 6.74949 25.702 7.49003 21.0669C8.30539 15.9569 12.6959 9.14512 13.6244 9.16214C14.5537 9.17917 11.742 15.756 10.2294 20.5579Z" fill="#9C2438"/>
<path d="M9.9825 20.4008C8.73268 24.3812 9.29637 27.6424 8.50652 27.6203C7.71666 27.5973 6.95741 24.9839 7.64609 20.8358C8.40534 16.2611 12.2254 10.19 13.0161 10.213C13.8051 10.2351 11.3301 16.1087 9.9825 20.4008Z" fill="#9F2439"/>
<path d="M9.73641 20.2447C8.63963 23.7527 9.04943 26.6436 8.39816 26.6155C7.74774 26.5874 7.16534 24.2677 7.80301 20.6056C8.50529 16.5664 11.7565 11.2367 12.4078 11.264C13.0574 11.2929 10.9191 16.4626 9.73641 20.2447Z" fill="#A22439"/>
<path d="M9.48928 20.0884C8.54468 23.124 8.80145 25.6437 8.28962 25.6105C7.77778 25.5765 7.37308 23.5505 7.95888 20.3745C8.60505 16.8715 11.2866 12.2824 11.7985 12.3165C12.3103 12.3497 10.507 16.8154 9.48928 20.0884Z" fill="#A5253A"/>
<path d="M9.24283 19.9293C8.45127 22.4916 8.55415 24.641 8.18175 24.6018C7.8085 24.5618 7.58149 22.8304 8.11543 20.1404C8.70464 17.1729 10.8174 13.3244 11.1898 13.3636C11.5622 13.4027 10.0956 17.1653 9.24283 19.9293Z" fill="#A7253B"/>
<path d="M24.2777 23.0226C22.0646 26.1977 19.0046 27.6159 19.6423 28.1922C20.2808 28.7685 22.9743 27.8619 25.763 25.0102C28.8383 21.8666 30.7105 15.5954 30.072 15.0191C29.4343 14.4428 26.6634 19.5988 24.2777 23.0226Z" fill="#972337"/>
<path d="M24.4974 23.0714C22.4764 25.9673 19.7115 27.2962 20.2794 27.8035C20.8482 28.3108 23.2782 27.4477 25.8144 24.8335C28.6108 21.9503 30.3554 16.2758 29.7866 15.7685C29.2187 15.2611 26.6765 19.949 24.4974 23.0714Z" fill="#992338"/>
<path d="M24.7168 23.1242C22.888 25.7401 20.4164 26.9812 20.9146 27.4196C21.4137 27.8572 23.5818 27.0382 25.8638 24.6598C28.3813 22.038 29.9984 16.9594 29.5002 16.5218C29.0019 16.0835 26.6893 20.3023 24.7168 23.1242Z" fill="#9C2438"/>
<path d="M24.9366 23.1731C23.2999 25.5098 21.1233 26.6633 21.5518 27.0319C21.9803 27.4005 23.8857 26.6241 25.9152 24.4832C28.1538 22.1227 29.6425 17.64 29.2149 17.2714C28.7864 16.9028 26.7025 20.6534 24.9366 23.1731Z" fill="#9F2439"/>
<path d="M25.1569 23.2223C23.7124 25.2789 21.83 26.3447 22.1879 26.6443C22.5467 26.944 24.1902 26.2102 25.9663 24.3068C27.9244 22.2067 29.2873 18.3207 28.9293 18.0211C28.5705 17.7215 26.7154 21.0039 25.1569 23.2223Z" fill="#A22439"/>
<path d="M25.3769 23.2709C24.1236 25.0491 22.5354 26.0255 22.8245 26.2562C23.1136 26.4869 24.4943 25.7965 26.0162 24.1298C27.6963 22.2911 28.9317 19.0018 28.6434 18.7711C28.3544 18.5405 26.7279 21.3547 25.3769 23.2709Z" fill="#A5253A"/>
<path d="M25.596 23.3246C24.5349 24.8228 23.2417 25.7124 23.4611 25.8732C23.6796 26.0341 24.7976 25.388 26.067 23.9571C27.4673 22.3797 28.5752 19.6863 28.3567 19.5254C28.1382 19.3646 26.7404 21.7089 25.596 23.3246Z" fill="#A7253B"/>
<path d="M61.9141 118.701L0.0246572 82.6909L0 75.0449L61.8903 111.056L61.9141 118.701Z" fill="#F58939"/>
<path d="M5.21657 85.7118L5.19531 78.0684L61.8907 111.055L61.9145 118.701L5.21657 85.7118Z" fill="#F08343"/>
<path d="M10.4067 88.7327L10.3896 81.0918L61.8902 111.057L61.914 118.702L10.4067 88.7327Z" fill="#EB7D4B"/>
<path d="M15.5986 91.7524L15.585 84.1133L61.8906 111.055L61.9144 118.701L15.5986 91.7524Z" fill="#E67853"/>
<path d="M20.7895 94.7722L20.7793 87.1348L61.8901 111.055L61.9139 118.7L20.7895 94.7722Z" fill="#E17359"/>
<path d="M25.9814 97.794L25.9746 90.1582L61.8906 111.056L61.9144 118.701L25.9814 97.794Z" fill="#DC6D5E"/>
<path d="M31.1723 100.815L31.1689 93.1814L61.89 111.056L61.9138 118.701L31.1723 100.815Z" fill="#D76762"/>
<path d="M36.3643 103.834L61.9143 118.7L61.8905 111.055L36.3643 96.2031V103.834Z" fill="#D36266"/>
<path d="M133.144 62.748L133.171 70.3889L109.433 91.2327L85.6552 97.8547L61.9144 118.701L61.8906 111.056L85.628 90.2146L109.406 83.5893L133.144 62.748Z" fill="#F37A33"/>
<path d="M133.144 62.748L133.171 70.3889L109.433 91.2327L85.6553 97.8546L65.2899 115.737L65.2695 108.089L85.6281 90.2146L109.406 83.5893L133.144 62.748Z" fill="#EF773D"/>
<path d="M133.143 62.748L133.17 70.3889L109.433 91.2327L85.6545 97.8547L68.6645 112.775L68.6475 105.124L85.6273 90.2146L109.405 83.5893L133.143 62.748Z" fill="#EA7347"/>
<path d="M133.144 62.748L133.171 70.3889L109.433 91.2327L85.6553 97.8547L72.0398 109.811L72.0254 102.157L85.6281 90.2146L109.406 83.5893L133.144 62.748Z" fill="#E5704F"/>
<path d="M133.143 62.748L133.17 70.3889L109.433 91.2327L85.6546 97.8547L75.4145 106.847L75.4043 99.1903L85.6274 90.2146L109.406 83.5893L133.143 62.748Z" fill="#E06D56"/>
<path d="M133.143 62.748L133.17 70.3889L109.433 91.2327L85.6546 97.8547L78.789 103.883L78.7822 96.2245L85.6274 90.2146L109.406 83.5893L133.143 62.748Z" fill="#DB695B"/>
<path d="M133.143 62.748L133.17 70.3889L109.433 91.2327L85.6547 97.8546L82.1645 100.92L82.1611 93.2587L85.6275 90.2146L109.406 83.5893L133.143 62.748Z" fill="#D76561"/>
<path d="M133.143 62.748L109.406 83.5893L85.6275 90.2146L85.5391 90.2921V97.9559L85.6547 97.8546L109.433 91.2327L133.17 70.3889L133.143 62.748Z" fill="#D36266"/>
<path d="M21.2836 50.3499C21.9783 57.1489 23.3293 64.874 21.0473 63.054C20.5244 62.6369 19.6384 57.3889 18.9438 50.5891C18.2483 43.7901 16.7987 38.1599 18.8554 38.1582C19.5041 38.1557 20.5881 43.5501 21.2836 50.3499Z" fill="#8E2034"/>
<path d="M21.085 50.3849C21.7414 56.8025 22.9793 64.0978 20.9643 62.3646C20.5026 61.9679 19.6898 57.0119 19.0334 50.5952C18.3771 44.1767 17.1298 38.8785 18.8719 38.8691C19.4407 38.8657 20.4295 43.9665 21.085 50.3849Z" fill="#962236"/>
<path d="M20.8867 50.4219C21.504 56.4582 22.6288 63.3244 20.8808 61.6789C20.4803 61.3027 19.7398 56.6386 19.1234 50.6032C18.5053 44.567 17.4603 39.5974 18.8879 39.582C19.3767 39.5778 20.2695 44.3857 20.8867 50.4219Z" fill="#9F2338"/>
<path d="M20.6881 50.4581C21.2654 56.1129 22.278 62.5484 20.7969 60.9915C20.4577 60.6357 19.7894 56.2636 19.2113 50.6096C18.634 44.9547 17.7905 40.3128 18.9035 40.2949C19.3124 40.2881 20.1099 44.8032 20.6881 50.4581Z" fill="#A7253B"/>
<path d="M112.195 57.8143C111.687 56.7009 110.003 56.5638 108.435 57.5095C106.866 58.4553 106.007 60.1255 106.516 61.2397C107.023 62.354 108.708 62.4902 110.276 61.5445C111.844 60.5987 112.704 58.9294 112.195 57.8143Z" fill="#E16C44"/>
<path d="M111.879 57.8866C111.427 56.8966 109.931 56.7749 108.537 57.6151C107.142 58.4561 106.38 59.9399 106.831 60.9299C107.283 61.9207 108.779 62.0416 110.173 61.2014C111.567 60.3613 112.331 58.8767 111.879 57.8866Z" fill="#E47346"/>
<path d="M111.563 57.9524C111.168 57.0866 109.859 56.9802 108.64 57.7149C107.42 58.4512 106.752 59.7494 107.147 60.6151C107.542 61.4825 108.851 61.5881 110.071 60.8526C111.29 60.1171 111.959 58.8189 111.563 57.9524Z" fill="#E77947"/>
<path d="M111.247 58.0239C110.909 57.2825 109.787 57.1914 108.741 57.8205C107.696 58.4513 107.124 59.5639 107.463 60.3062C107.801 61.0493 108.923 61.1395 109.968 60.5096C111.013 59.8797 111.585 58.7671 111.247 58.0239Z" fill="#EA8049"/>
<path d="M110.932 58.0944C110.65 57.4764 109.715 57.4006 108.845 57.925C107.974 58.4502 107.497 59.3772 107.779 59.9952C108.061 60.6141 108.996 60.689 109.867 60.1646C110.737 59.6394 111.214 58.7124 110.932 58.0944Z" fill="#ED874B"/>
<path d="M110.616 58.1661C110.391 57.6724 109.643 57.6111 108.947 58.0308C108.251 58.4504 107.87 59.1919 108.095 59.6865C108.321 60.181 109.069 60.2406 109.764 59.8218C110.459 59.4021 110.841 58.6607 110.616 58.1661Z" fill="#F18D4D"/>
<path d="M110.299 58.2356C110.13 57.8661 109.571 57.8201 109.05 58.1343C108.527 58.4492 108.242 59.0042 108.411 59.3745C108.58 59.7448 109.14 59.7908 109.662 59.4767C110.183 59.1617 110.469 58.6067 110.299 58.2356Z" fill="#F4944E"/>
<path d="M109.983 58.306C109.871 58.06 109.499 58.0293 109.152 58.2387C108.805 58.4481 108.614 58.8176 108.727 59.0636C108.84 59.3105 109.212 59.3403 109.559 59.1317C109.906 58.9223 110.096 58.5528 109.983 58.306Z" fill="#F79B50"/>
<path d="M71.3315 88.353C69.677 86.9314 66.0516 88.4424 63.2331 91.7291C60.4146 95.0158 59.4701 98.8336 61.1246 100.255C62.7783 101.677 66.4036 100.165 69.2221 96.8783C72.0414 93.5916 72.9852 89.7754 71.3315 88.353Z" fill="#E16C44"/>
<path d="M61.7093 99.3807C60.2852 98.1021 61.1345 94.6639 63.7124 91.6581C66.2835 88.66 69.5492 87.2937 71.0354 88.5084C72.4586 89.787 71.6093 93.2252 69.0314 96.231C66.4603 99.2291 63.1946 100.595 61.7093 99.3807Z" fill="#E47346"/>
<path d="M62.2944 98.508C61.0998 97.3732 61.8548 94.313 64.1921 91.5881C66.5157 88.8786 69.4218 87.657 70.7396 88.6657C71.9342 89.8013 71.1784 92.8607 68.8419 95.5856C66.5174 98.2951 63.6131 99.5167 62.2944 98.508Z" fill="#E77947"/>
<path d="M62.8806 97.6355C61.9147 96.6429 62.5754 93.9615 64.672 91.5175C66.7483 89.0966 69.2938 88.0214 70.4433 88.8225C71.4083 89.815 70.7477 92.4956 68.6519 94.9396C66.5748 97.3605 64.0301 98.4365 62.8806 97.6355Z" fill="#EA8049"/>
<path d="M63.4652 96.7647C62.7298 95.9151 63.2961 93.6133 65.1512 91.4503C66.9801 89.3171 69.1651 88.3866 70.1472 88.9808C70.8826 89.8312 70.3163 92.133 68.4612 94.2961C66.6315 96.4293 64.4473 97.3597 63.4652 96.7647Z" fill="#ED874B"/>
<path d="M64.0511 95.8922C63.5452 95.1857 64.0162 93.2618 65.6308 91.3797C67.2122 89.535 69.0377 88.7502 69.8505 89.1375C70.3564 89.8449 69.8853 91.7679 68.2708 93.65C66.6893 95.4947 64.8639 96.2795 64.0511 95.8922Z" fill="#F18D4D"/>
<path d="M64.6364 95.0198C64.3601 94.4562 64.7368 92.9121 66.1107 91.31C67.4447 89.7548 68.9097 89.1146 69.555 89.2951C69.8322 89.8595 69.4547 91.4036 68.0815 93.0049C66.7467 94.561 65.2818 95.2011 64.6364 95.0198Z" fill="#F4944E"/>
<path d="M65.2218 94.1488C65.1742 93.7283 65.4564 92.5621 66.5889 91.2409C67.6764 89.9743 68.7808 89.4797 69.2586 89.4533C69.3054 89.8738 69.0231 91.0392 67.8906 92.3603C66.8032 93.6279 65.6987 94.1224 65.2218 94.1488Z" fill="#F79B50"/>
<path d="M77.9258 65.2741L78.3432 65.5175L78.4699 65.3975C78.163 65.2834 77.9742 65.2374 77.9258 65.2741Z" fill="#F9AC31"/>
<path d="M57.252 53.2452L56.0591 52.5514L53.9336 51.3145L49.6986 48.8502L47.5152 47.5801L46.0988 47.9742L45.0394 48.2696L44.6814 48.3692L43.2641 48.7642L43.2437 48.7701L43.0159 48.834L40.4303 49.5541L39.0139 49.9491L38.0965 50.2045L35.6266 50.8923L32.3235 51.8125L25.3295 53.761L25.1943 55.0524L32.5785 59.3495H32.5794L36.3127 61.5219L56.4086 54.0181L57.252 53.2452Z" fill="#FDC26E"/>
</svg>
